<svg version="1.1" xmlns="http://www.w3.org/2000/svg" viewBox="0 0 837.547870250718 466.65338834260933" width="1675.095740501436" height="933.3067766852187">
  <!-- svg-source:excalidraw -->
  
  <defs>
    <style>
      @font-face {
        font-family: "Virgil";
        src: url("https://excalidraw.com/Virgil.woff2");
      }
      @font-face {
        font-family: "Cascadia";
        src: url("https://excalidraw.com/Cascadia.woff2");
      }
    </style>
  </defs>
  <g stroke-opacity="0.7" fill-opacity="0.7" stroke-linecap="round" transform="translate(10 106.51523072785562) rotate(0 408.773935125359 130.37000910176846)"><path d="M356.43 0.6 C384.19 -2.44, 418.49 0.5, 448.71 1.51 C478.93 2.51, 509.01 3.84, 537.76 6.63 C566.51 9.41, 595.29 13.27, 621.18 18.22 C647.08 23.17, 671.48 29.41, 693.13 36.32 C714.79 43.24, 734.68 51.46, 751.12 59.7 C767.56 67.94, 781.37 76.79, 791.79 85.78 C802.21 94.78, 809.82 104.29, 813.66 113.65 C817.5 123.02, 817.51 132.25, 814.83 141.99 C812.15 151.72, 807.05 162.77, 797.6 172.05 C788.15 181.33, 773.9 189.65, 758.1 197.68 C742.31 205.71, 723.82 213.42, 702.83 220.25 C681.83 227.08, 657.49 233.32, 632.13 238.66 C606.77 244, 579.22 248.91, 550.67 252.28 C522.12 255.66, 491.09 257.68, 460.84 258.92 C430.59 260.17, 399.36 260.71, 369.15 259.77 C338.95 258.83, 308.46 256.22, 279.61 253.29 C250.76 250.36, 222.07 247.19, 196.06 242.17 C170.05 237.16, 145.11 229.88, 123.57 223.2 C102.03 216.53, 83.17 210.07, 66.83 202.12 C50.48 194.17, 36.19 184.59, 25.51 175.51 C14.84 166.43, 6.57 157.17, 2.78 147.63 C-1.01 138.09, -0.29 127.95, 2.74 118.27 C5.78 108.6, 11.75 98.98, 21.01 89.58 C30.26 80.18, 42.6 70.05, 58.25 61.87 C73.9 53.7, 93.48 47.21, 114.89 40.52 C136.31 33.83, 161.27 27.25, 186.75 21.74 C212.24 16.23, 233.52 11.05, 267.81 7.47 C302.1 3.88, 365.61 0.96, 392.48 0.23 C419.35 -0.5, 428.52 0.89, 429.03 3.07 M388.52 0.68 C417.27 -2.19, 451.27 -0.42, 481.2 1.16 C511.12 2.74, 540.52 5.99, 568.06 10.13 C595.59 14.28, 621.82 20.43, 646.43 26.02 C671.03 31.62, 695.62 36.55, 715.69 43.69 C735.75 50.83, 752.19 60.3, 766.8 68.86 C781.42 77.42, 795.15 85.85, 803.38 95.05 C811.61 104.24, 815.07 114.58, 816.16 124.04 C817.25 133.5, 815.3 142.48, 809.95 151.82 C804.59 161.16, 795.51 171.19, 784.01 180.06 C772.51 188.94, 758.46 196.87, 740.95 205.06 C723.44 213.26, 701.85 222.73, 678.95 229.22 C656.06 235.71, 630.08 239.48, 603.57 244 C577.07 248.53, 548.96 253.75, 519.92 256.36 C490.88 258.97, 459.9 259.04, 429.33 259.68 C398.77 260.32, 366.54 261.66, 336.53 260.19 C306.51 258.73, 276.93 255.11, 249.23 250.9 C221.52 246.7, 194.61 240.52, 170.3 234.94 C145.99 229.36, 123.25 224.44, 103.38 217.43 C83.5 210.42, 65.85 201.28, 51.04 192.88 C36.22 184.48, 22.86 176.14, 14.48 167 C6.1 157.86, 1.91 148.1, 0.75 138.03 C-0.4 127.96, 2.09 116.09, 7.53 106.56 C12.98 97.04, 21.71 89.68, 33.44 80.88 C45.17 72.08, 60.22 61.94, 77.92 53.75 C95.62 45.56, 117.05 38.19, 139.66 31.75 C162.26 25.31, 187.12 19.4, 213.55 15.11 C239.98 10.82, 269.31 8.45, 298.24 6.01 C327.17 3.58, 372.16 0.91, 387.13 0.5 C402.1 0.08, 387.24 1.29, 388.04 3.54" stroke="#000000" stroke-width="2" fill="none"></path></g><g stroke-linecap="round"><g stroke-opacity="0.7" fill-opacity="0.7" transform="translate(437.2891990065676 45.136710407947305) rotate(0 -33.65411781407897 203.35649764951316)"><path d="M0.21 -0.47 C-10.85 67.56, -56.31 339.03, -67.52 407.13 M-1.13 -1.76 C-11.75 66.52, -54.25 340.49, -65.42 408.47" stroke="#000000" stroke-width="2" fill="none"></path></g></g><g stroke-linecap="round"><g stroke-opacity="0.7" fill-opacity="0.7" transform="translate(384.10100611424775 41.61264633552548) rotate(0 -33.261082508787524 203.54129644297063)"><path d="M-1.14 -0.89 C-12.07 67.3, -54.7 339.92, -65.38 407.97" stroke="#000000" stroke-width="2.5" fill="none" stroke-dasharray="8 10"></path></g></g><g stroke-linecap="round"><g stroke-opacity="0.7" fill-opacity="0.7" transform="translate(483.79298865976546 47.96630130407743) rotate(0 -33.39815668202937 204.83387988545002)"><path d="M-0.89 0.98 C-11.68 69.29, -54.98 340.76, -65.91 408.69" stroke="#000000" stroke-width="2.5" fill="none" stroke-dasharray="8 10"></path></g></g><g stroke-opacity="0.7" fill-opacity="0.7" stroke-linecap="round" transform="translate(168.9327221263609 248.42771093168267) rotate(0 90.849609375 49.041015625)"><path d="M79.86 0.12 C91.94 -1.53, 106.86 0.33, 119.24 2.7 C131.61 5.06, 144.63 9.38, 154.13 14.29 C163.63 19.2, 171.59 25.57, 176.24 32.15 C180.89 38.73, 183.31 46.6, 182.01 53.78 C180.71 60.96, 175.25 69.11, 168.44 75.25 C161.63 81.39, 152.08 86.76, 141.14 90.62 C130.2 94.48, 116 97.71, 102.81 98.39 C89.62 99.06, 74.37 96.87, 61.99 94.65 C49.6 92.42, 37.86 89.94, 28.49 85.02 C19.12 80.11, 10.45 72.02, 5.76 65.17 C1.07 58.31, -0.85 50.91, 0.37 43.9 C1.59 36.89, 6.23 29.01, 13.1 23.1 C19.98 17.19, 29.24 12.17, 41.62 8.46 C54 4.75, 78.36 1.95, 87.4 0.85 C96.45 -0.25, 95.87 1.27, 95.87 1.86 M80.69 1.59 C92.99 0.29, 109.38 1.01, 122.05 3.15 C134.71 5.29, 147.68 9.46, 156.67 14.43 C165.66 19.4, 171.77 26.1, 176 32.99 C180.22 39.88, 183.61 48.49, 182.01 55.79 C180.42 63.09, 173.64 70.72, 166.44 76.78 C159.25 82.83, 149.67 88.6, 138.82 92.1 C127.97 95.61, 114.37 97.36, 101.34 97.79 C88.31 98.21, 73.26 97.21, 60.64 94.67 C48.03 92.13, 35.1 87.59, 25.65 82.55 C16.21 77.52, 8.27 71.05, 3.96 64.48 C-0.34 57.9, -1.88 50.29, -0.17 43.09 C1.55 35.89, 6.87 27.26, 14.27 21.29 C21.67 15.32, 33.1 10.81, 44.24 7.26 C55.37 3.7, 75.11 0.86, 81.1 -0.04 C87.09 -0.94, 79.75 0.76, 80.17 1.86" stroke="none" stroke-width="0" fill="#fa5252"></path><path d="M57.15 3.71 C68.3 0.61, 84.48 -0.76, 97.56 -0.38 C110.63 0, 124.05 2.3, 135.61 5.98 C147.18 9.67, 159.59 15.69, 166.96 21.73 C174.33 27.77, 178.14 35.27, 179.86 42.21 C181.58 49.15, 181.03 56.55, 177.28 63.37 C173.53 70.19, 166.2 78.04, 157.36 83.11 C148.52 88.18, 136.61 91.39, 124.23 93.78 C111.85 96.18, 96.15 97.75, 83.08 97.48 C70.01 97.21, 57.1 95.68, 45.8 92.14 C34.5 88.6, 22.78 82.24, 15.28 76.26 C7.78 70.27, 2.55 63.21, 0.81 56.21 C-0.93 49.22, 0.75 41.09, 4.84 34.31 C8.92 27.53, 14.37 21.06, 25.29 15.55 C36.22 10.03, 60.52 3.58, 70.4 1.23 C80.29 -1.11, 84.17 0.6, 84.6 1.49 M122.99 4.11 C134.81 5.59, 145.59 8.61, 154.68 13.44 C163.77 18.26, 173.23 26.09, 177.54 33.08 C181.85 40.06, 182.18 48.1, 180.52 55.35 C178.86 62.61, 174.45 70.51, 167.57 76.58 C160.69 82.65, 150.67 88.39, 139.23 91.75 C127.8 95.11, 112.1 96.24, 98.96 96.73 C85.82 97.22, 72.59 97.03, 60.38 94.7 C48.17 92.37, 35.01 87.93, 25.7 82.78 C16.38 77.63, 8.56 70.23, 4.48 63.8 C0.41 57.37, -0.34 51.31, 1.26 44.2 C2.85 37.08, 6.9 27.33, 14.04 21.12 C21.18 14.92, 32.95 10.26, 44.08 6.97 C55.21 3.69, 67.84 1.89, 80.8 1.43 C93.75 0.98, 115.07 3.84, 121.79 4.24 C128.52 4.65, 121.66 3.3, 121.14 3.87" stroke="#000000" stroke-width="1" fill="none"></path></g><g stroke-opacity="0.7" fill-opacity="0.7" stroke-linecap="round" transform="translate(91.42165090566152 133.13072713341728) rotate(0.29801199929372185 136.97018346558406 54.25499659322679)"><path d="M187.95 4.72 C203.46 6.1, 219.45 9.53, 231.53 13.84 C243.6 18.16, 253.4 24.57, 260.4 30.62 C267.4 36.67, 272.39 43.68, 273.53 50.15 C274.67 56.61, 271.93 63.07, 267.24 69.4 C262.54 75.73, 255.22 82.89, 245.37 88.15 C235.52 93.41, 222.44 97.64, 208.13 100.95 C193.82 104.26, 175.94 106.99, 159.51 108.02 C143.09 109.05, 125.58 108.42, 109.56 107.11 C93.55 105.81, 77.13 103.54, 63.4 100.21 C49.68 96.88, 36.9 92.5, 27.22 87.13 C17.54 81.75, 9.8 74.41, 5.33 67.95 C0.86 61.5, -1.21 54.72, 0.41 48.41 C2.02 42.11, 7.34 35.89, 15 30.12 C22.66 24.36, 34.1 18.24, 46.37 13.83 C58.65 9.42, 73.32 5.89, 88.65 3.64 C103.97 1.39, 118.98 -0.18, 138.3 0.35 C157.63 0.88, 191.48 4.98, 204.6 6.83 C217.73 8.68, 218.37 10.73, 217.07 11.46 M150.12 0.29 C166.07 0.23, 183.97 2.85, 198.65 5.89 C213.33 8.94, 227.38 13.9, 238.19 18.56 C249 23.21, 257.31 28.14, 263.51 33.83 C269.71 39.53, 275.06 46.23, 275.37 52.72 C275.68 59.22, 271.59 66.6, 265.38 72.81 C259.17 79.02, 249.29 85.18, 238.09 90.01 C226.9 94.83, 212.72 98.64, 198.2 101.75 C183.67 104.86, 167.17 108.01, 150.93 108.67 C134.7 109.33, 116.86 107.4, 100.77 105.7 C84.68 104, 67.99 102.4, 54.38 98.49 C40.78 94.59, 27.68 88.02, 19.16 82.27 C10.64 76.53, 6.05 70.39, 3.25 64.03 C0.44 57.67, -0.66 50.41, 2.34 44.12 C5.33 37.82, 12.4 31.76, 21.2 26.24 C30 20.72, 41.97 14.89, 55.11 10.99 C68.25 7.1, 84.28 4.56, 100.04 2.86 C115.8 1.17, 141.61 1.1, 149.67 0.81 C157.74 0.52, 148.66 0.1, 148.43 1.13" stroke="none" stroke-width="0" fill="#4c6ef5"></path><path d="M182.57 2.56 C198.04 3.88, 213.61 8.05, 226.22 12.47 C238.82 16.89, 250.44 23.09, 258.2 29.09 C265.96 35.08, 270.86 41.91, 272.78 48.45 C274.69 54.99, 273.76 62.22, 269.67 68.33 C265.58 74.44, 257.79 79.87, 248.24 85.11 C238.68 90.35, 226.06 96.16, 212.32 99.79 C198.58 103.42, 181.71 105.47, 165.78 106.89 C149.85 108.31, 132.93 109.11, 116.73 108.3 C100.53 107.48, 83.02 105.43, 68.58 102 C54.14 98.57, 40.46 92.82, 30.09 87.71 C19.71 82.59, 11.18 77.55, 6.31 71.29 C1.45 65.04, -0.3 56.8, 0.9 50.19 C2.1 43.57, 6.55 37.34, 13.51 31.62 C20.46 25.9, 30.93 20.39, 42.62 15.87 C54.31 11.35, 68.69 7.2, 83.67 4.5 C98.65 1.8, 114.69 -0.23, 132.49 -0.34 C150.3 -0.46, 179.61 2.67, 190.51 3.79 C201.41 4.92, 198.69 5.46, 197.87 6.4 M75.3 5.47 C87.93 2.04, 105.87 1.2, 122.54 0.86 C139.21 0.51, 159.34 1.79, 175.33 3.4 C191.32 5, 205.46 6.91, 218.48 10.49 C231.49 14.07, 244.6 19.51, 253.43 24.87 C262.27 30.23, 268.67 36.14, 271.48 42.64 C274.28 49.14, 273.26 57.01, 270.26 63.87 C267.27 70.73, 261.9 78.18, 253.5 83.8 C245.11 89.42, 233.12 93.81, 219.91 97.59 C206.7 101.38, 190.13 104.85, 174.23 106.5 C158.32 108.15, 140.59 108.19, 124.5 107.49 C108.41 106.8, 92.33 105.26, 77.67 102.32 C63.02 99.37, 47.78 94.42, 36.55 89.84 C25.32 85.27, 16.45 80.8, 10.29 74.86 C4.13 68.92, -0.46 60.97, -0.42 54.21 C-0.37 47.45, 4.74 40.48, 10.55 34.32 C16.37 28.16, 23.84 21.94, 34.46 17.23 C45.08 12.53, 67.03 7.85, 74.27 6.09 C81.5 4.34, 76.66 6.17, 77.88 6.69" stroke="#000000" stroke-width="1" fill="none"></path></g><g stroke-opacity="0.7" fill-opacity="0.7" stroke-linecap="round" transform="translate(230.14091214279233 151.51220177774798) rotate(0 67.24784930888666 36.1149627412037)"><path d="M54.47 1.26 C64.62 -0.29, 77.68 -0.06, 88.37 1.71 C99.07 3.47, 111.3 7.39, 118.66 11.86 C126.02 16.33, 130.61 22.54, 132.54 28.54 C134.46 34.53, 133.54 42.05, 130.21 47.82 C126.88 53.59, 120.83 59.35, 112.56 63.15 C104.28 66.94, 91.56 69.3, 80.57 70.58 C69.57 71.85, 57.07 72.62, 46.58 70.79 C36.08 68.97, 25.13 64.28, 17.61 59.62 C10.09 54.96, 3.69 48.55, 1.46 42.84 C-0.77 37.13, 0.85 31.02, 4.25 25.37 C7.65 19.72, 12.14 13.17, 21.86 8.95 C31.58 4.74, 54.27 1.59, 62.57 0.08 C70.87 -1.43, 71.66 -0.75, 71.69 -0.09 M84.58 1.78 C94.84 2.72, 107.04 6.12, 115.08 10.42 C123.13 14.72, 129.84 21.48, 132.86 27.6 C135.87 33.72, 136.12 41.51, 133.17 47.15 C130.23 52.78, 123.51 57.44, 115.19 61.43 C106.87 65.42, 94.37 69.31, 83.28 71.09 C72.18 72.86, 59.26 73.63, 48.6 72.06 C37.94 70.49, 27.26 66.1, 19.31 61.67 C11.36 57.23, 3.89 51.24, 0.9 45.44 C-2.09 39.63, -1.96 32.75, 1.39 26.85 C4.74 20.96, 12.81 14.39, 21.01 10.06 C29.2 5.73, 39.96 2.47, 50.54 0.9 C61.13 -0.67, 78.7 0.49, 84.51 0.67 C90.31 0.85, 85.68 1.16, 85.36 1.98" stroke="none" stroke-width="0" fill="#be4bdb"></path><path d="M70.03 0.09 C80.77 -0.06, 93.52 3.04, 103.1 6.27 C112.69 9.5, 122.18 14.23, 127.54 19.49 C132.89 24.74, 135.73 31.84, 135.23 37.8 C134.74 43.75, 130.85 50.19, 124.55 55.23 C118.25 60.27, 107.48 65.27, 97.42 68.03 C87.36 70.8, 75.37 71.92, 64.2 71.8 C53.04 71.69, 39.8 70.5, 30.41 67.34 C21.02 64.17, 12.78 58.32, 7.85 52.8 C2.93 47.28, 0.47 40.29, 0.87 34.23 C1.26 28.16, 4.16 21.37, 10.22 16.43 C16.27 11.5, 24.98 7.01, 37.18 4.62 C49.39 2.22, 73.56 1.97, 83.44 2.08 C93.32 2.19, 96.53 4.86, 96.46 5.29 M73.79 -0.72 C84.49 -0.65, 97.52 2.5, 106.67 6.24 C115.83 9.97, 124.38 15.83, 128.71 21.69 C133.04 27.54, 133.92 35.42, 132.68 41.37 C131.44 47.32, 127.75 52.97, 121.28 57.4 C114.82 61.82, 104.02 65.27, 93.87 67.94 C83.72 70.6, 71.23 73.94, 60.37 73.38 C49.51 72.82, 37.91 68.32, 28.73 64.57 C19.55 60.82, 10.11 56.28, 5.28 50.86 C0.46 45.45, -1.29 38.33, -0.23 32.06 C0.84 25.79, 4.94 18.12, 11.68 13.25 C18.41 8.37, 29.46 5, 40.16 2.83 C50.87 0.65, 70.13 0.64, 75.9 0.2 C81.66 -0.23, 75.05 -0.33, 74.75 0.21" stroke="#000000" stroke-width="1" fill="none"></path></g><g stroke-opacity="0.7" fill-opacity="0.7" stroke-linecap="round" transform="translate(448.1842326327841 179.47016989294002) rotate(0 186.6153666781924 68.1648072791993)"><path d="M161.42 1.13 C179.83 -0.98, 202.24 -0.27, 221.87 1.2 C241.49 2.67, 261.5 6.28, 279.17 9.94 C296.85 13.6, 314.45 17.78, 327.9 23.15 C341.36 28.53, 352.43 35.26, 359.91 42.17 C367.39 49.09, 371.58 57.29, 372.79 64.64 C374 72, 372.5 79.44, 367.17 86.32 C361.83 93.2, 352.42 99.8, 340.77 105.92 C329.11 112.03, 313.74 118.52, 297.24 122.98 C280.75 127.45, 261.07 130.59, 241.77 132.72 C222.47 134.85, 201.65 135.73, 181.45 135.77 C161.25 135.8, 139.35 135.42, 120.58 132.91 C101.81 130.4, 84.18 125.52, 68.83 120.72 C53.48 115.92, 39.17 110.27, 28.47 104.1 C17.77 97.93, 9.26 91, 4.63 83.73 C0 76.45, -1.36 67.97, 0.72 60.47 C2.79 52.97, 8.39 45.35, 17.08 38.73 C25.77 32.11, 38.85 25.88, 52.85 20.77 C66.85 15.66, 80.05 11.34, 101.07 8.05 C122.1 4.77, 163.19 2.08, 179.02 1.03 C194.84 -0.01, 195.92 0.76, 196.05 1.8" stroke="none" stroke-width="0" fill="#fab005"></path><path d="M255.24 5.53 C274.14 7.18, 291.25 11.63, 306.64 16.16 C322.04 20.69, 337.26 26.49, 347.59 32.69 C357.91 38.89, 364.45 46.07, 368.61 53.37 C372.77 60.67, 374.91 68.96, 372.53 76.48 C370.14 84, 363.44 91.69, 354.28 98.48 C345.12 105.27, 331.91 111.95, 317.57 117.2 C303.23 122.45, 286.42 126.71, 268.22 129.97 C250.02 133.23, 228.49 136.05, 208.36 136.76 C188.24 137.46, 167.16 135.89, 147.46 134.21 C127.75 132.53, 107.53 130.37, 90.16 126.67 C72.79 122.98, 56.02 117.72, 43.24 112.03 C30.45 106.35, 20.55 99.46, 13.45 92.57 C6.35 85.67, 1.56 77.84, 0.63 70.66 C-0.3 63.48, 2.14 56.49, 7.87 49.49 C13.6 42.5, 23.11 34.78, 35.01 28.68 C46.92 22.59, 62.92 17.1, 79.3 12.94 C95.68 8.78, 114.19 5.88, 133.31 3.71 C152.44 1.55, 169.77 -0.77, 194.05 -0.05 C218.34 0.66, 261.49 5.52, 279.02 7.99 C296.55 10.46, 300.75 13.52, 299.24 14.76" stroke="#000000" stroke-width="1.5" fill="none" stroke-dasharray="8 9"></path></g><g stroke-opacity="0.7" fill-opacity="0.7" stroke-linecap="round" transform="translate(446.9237080298908 199.8033759137137) rotate(0 123.05859375 48.412452793440025)"><path d="M73.82 4.39 C86.67 1.33, 105.11 0.73, 120.55 0.49 C135.99 0.24, 151.95 0.73, 166.47 2.92 C180.99 5.12, 196.15 9.45, 207.68 13.66 C219.22 17.87, 229.43 22.57, 235.66 28.19 C241.9 33.81, 244.63 41, 245.1 47.36 C245.56 53.71, 243.78 60.45, 238.44 66.31 C233.1 72.18, 223.97 78.11, 213.06 82.54 C202.15 86.97, 187.29 90.39, 172.96 92.88 C158.64 95.37, 142.87 97.52, 127.1 97.49 C111.33 97.45, 93.31 95.15, 78.36 92.67 C63.41 90.19, 48.55 86.75, 37.4 82.61 C26.24 78.47, 17.62 73.5, 11.43 67.83 C5.23 62.17, 0.9 54.73, 0.21 48.63 C-0.48 42.53, 1.55 36.83, 7.31 31.23 C13.06 25.63, 23.18 19.55, 34.74 15.02 C46.31 10.49, 69.09 6.03, 76.68 4.07 C84.26 2.11, 79.33 2.61, 80.23 3.27 M164.37 3.97 C179.05 5.65, 192.77 9.93, 204.27 13.96 C215.78 17.98, 226.52 22.87, 233.39 28.13 C240.26 33.38, 244.8 39.57, 245.52 45.5 C246.23 51.44, 243.13 57.59, 237.7 63.71 C232.26 69.83, 223.39 77.48, 212.89 82.24 C202.39 86.99, 188.64 89.64, 174.69 92.22 C160.74 94.8, 144.65 97.54, 129.18 97.72 C113.71 97.9, 96.89 95.41, 81.87 93.29 C66.85 91.17, 50.93 88.76, 39.06 84.99 C27.18 81.21, 17.22 76.22, 10.6 70.64 C3.99 65.06, -0.1 57.73, -0.63 51.49 C-1.16 45.25, 1.95 39.07, 7.42 33.2 C12.89 27.34, 21.68 20.82, 32.19 16.31 C42.7 11.79, 56.6 8.8, 70.49 6.11 C84.37 3.42, 99.82 0.96, 115.49 0.19 C131.16 -0.58, 156.68 0.97, 164.5 1.48 C172.32 1.99, 163.02 2.15, 162.42 3.27" stroke="none" stroke-width="0" fill="#15aabf"></path><path d="M175.05 4.52 C189.73 6.11, 203.36 10.36, 214.04 14.72 C224.73 19.08, 233.89 24.9, 239.15 30.68 C244.41 36.46, 246.37 43.16, 245.61 49.4 C244.86 55.65, 241.16 62.3, 234.63 68.14 C228.09 73.97, 217.87 80.26, 206.42 84.41 C194.97 88.56, 180.49 91.09, 165.93 93.02 C151.36 94.96, 134.76 96.28, 119.02 96.04 C103.27 95.79, 85.84 93.99, 71.47 91.56 C57.1 89.13, 43.53 85.74, 32.79 81.44 C22.04 77.14, 12.35 71.63, 7 65.74 C1.65 59.85, 0.14 52.39, 0.68 46.08 C1.23 39.77, 3.93 33.31, 10.28 27.87 C16.64 22.43, 27.19 17.71, 38.82 13.45 C50.45 9.18, 65.19 4.49, 80.08 2.27 C94.97 0.06, 110.68 -0.43, 128.15 0.15 C145.62 0.73, 174.07 4.14, 184.91 5.75 C195.75 7.36, 194.19 9.04, 193.17 9.8 M105.32 -0.27 C119.98 -1.95, 138.02 0.17, 153.5 1.63 C168.97 3.09, 185.71 5, 198.18 8.5 C210.64 12, 220.61 16.9, 228.29 22.63 C235.98 28.36, 241.8 36.35, 244.28 42.9 C246.75 49.45, 246.73 56.27, 243.16 61.94 C239.59 67.62, 232.64 72.28, 222.86 76.93 C213.09 81.59, 198.51 86.47, 184.5 89.87 C170.49 93.27, 154.1 96.21, 138.8 97.34 C123.49 98.48, 107.62 98.33, 92.65 96.68 C77.68 95.02, 61.59 91.17, 48.98 87.43 C36.36 83.7, 25.13 79.49, 16.98 74.25 C8.82 69.02, 2.3 62.16, 0.03 56.02 C-2.25 49.88, -0.9 43.28, 3.34 37.4 C7.58 31.53, 15.9 26.07, 25.48 20.78 C35.05 15.49, 47.24 8.86, 60.8 5.69 C74.36 2.52, 99.49 2.51, 106.86 1.77 C114.22 1.03, 104.67 0.51, 104.99 1.24" stroke="#000000" stroke-width="1" fill="none"></path></g><g transform="translate(461.97859254428226 233.22001074524633) rotate(0 65.5 12)"><text x="0" y="20" font-family="Cascadia, Segoe UI Emoji" font-size="20px" fill="#000000" text-anchor="start" style="white-space: pre;" direction="ltr">biseparable</text></g><g stroke-opacity="0.7" fill-opacity="0.7" stroke-linecap="round" transform="translate(248.45212300628793 174.690598728589) rotate(0 5.031369941516687 5.031369941516715)"><path d="M2.79 -0.08 C3.74 -0.77, 5.3 -1.16, 6.48 -0.73 C7.66 -0.29, 9.44 1.43, 9.88 2.54 C10.32 3.64, 9.34 5.06, 9.1 5.9 C8.85 6.73, 9.03 6.86, 8.41 7.53 C7.79 8.2, 6.37 9.65, 5.39 9.91 C4.4 10.16, 3.51 9.62, 2.5 9.07 C1.5 8.51, -0.2 7.43, -0.65 6.57 C-1.09 5.71, -0.8 4.8, -0.16 3.91 C0.48 3.03, 2.35 1.82, 3.18 1.28 C4.02 0.73, 4.83 0.73, 4.83 0.64 M3.43 -0.22 C4.7 -0.26, 7.97 1.44, 9.21 2.16 C10.45 2.87, 10.75 3.24, 10.89 4.06 C11.03 4.87, 10.47 5.91, 10.05 7.04 C9.63 8.16, 9.64 10.42, 8.38 10.81 C7.12 11.19, 3.75 9.6, 2.48 9.35 C1.2 9.1, 1.23 10.13, 0.74 9.31 C0.24 8.5, -0.85 5.67, -0.51 4.46 C-0.17 3.25, 1.85 2.88, 2.76 2.08 C3.68 1.27, 4.55 -0.22, 4.98 -0.38 C5.4 -0.53, 5.2 0.92, 5.31 1.14" stroke="#000000" stroke-width="1" fill="none"></path></g><g stroke-opacity="0.7" fill-opacity="0.7" stroke-linecap="round" transform="translate(300.38384508480976 160.52331699563706) rotate(0 5.031369941516687 5.031369941516715)"><path d="M1.81 1.22 C2.79 0.57, 5.48 -0.98, 6.61 -0.86 C7.73 -0.74, 7.82 0.78, 8.56 1.94 C9.29 3.09, 11.11 5.05, 11.02 6.06 C10.94 7.07, 9.02 7.43, 8.03 7.98 C7.04 8.53, 6.18 9, 5.07 9.36 C3.96 9.72, 2.25 10.47, 1.36 10.13 C0.46 9.79, -0.13 8.46, -0.29 7.32 C-0.44 6.18, -0.33 4.64, 0.42 3.3 C1.16 1.96, 3.46 -0.29, 4.18 -0.72 C4.9 -1.15, 4.86 0.53, 4.74 0.73 M6.19 -0.44 C7.35 -0.49, 8.57 -0.43, 9.21 0.6 C9.86 1.62, 10.19 4.32, 10.07 5.71 C9.94 7.11, 9.18 8.28, 8.46 8.96 C7.74 9.65, 6.77 9.86, 5.75 9.85 C4.74 9.83, 3.19 9.54, 2.38 8.87 C1.57 8.2, 1.31 6.72, 0.88 5.82 C0.45 4.93, -0.54 4.13, -0.22 3.49 C0.1 2.86, 2.03 2.77, 2.79 1.99 C3.55 1.21, 3.86 -0.79, 4.36 -1.19 C4.85 -1.58, 5.42 -0.75, 5.76 -0.37" stroke="#000000" stroke-width="1" fill="none"></path></g><g stroke-opacity="0.7" fill-opacity="0.7" stroke-linecap="round" transform="translate(314.8896291916212 166.2519100965025) rotate(0 5.031369941516687 5.031369941516715)"><path d="M6.35 0.01 C7.32 0.25, 8.91 1.98, 9.48 3.14 C10.05 4.31, 9.99 6.05, 9.75 7 C9.51 7.95, 8.78 8.32, 8.04 8.83 C7.3 9.35, 6.48 10.12, 5.31 10.08 C4.14 10.05, 1.84 9.38, 1.02 8.63 C0.2 7.87, 0.47 6.58, 0.4 5.56 C0.32 4.55, -0.06 3.53, 0.58 2.54 C1.22 1.56, 3.12 -0.03, 4.23 -0.34 C5.34 -0.64, 6.52 0.31, 7.25 0.7 C7.98 1.09, 8.7 1.79, 8.64 2.02 M3.91 0.02 C4.59 -0.77, 4.55 -0.43, 5.33 -0.15 C6.11 0.13, 7.79 0.6, 8.58 1.7 C9.38 2.8, 10.17 5.18, 10.1 6.43 C10.04 7.69, 9.19 8.52, 8.21 9.24 C7.22 9.95, 5.33 10.85, 4.21 10.72 C3.09 10.59, 2.24 8.97, 1.51 8.46 C0.77 7.96, 0.09 8.61, -0.21 7.71 C-0.51 6.8, -0.88 4.3, -0.3 3.04 C0.28 1.77, 2.56 0.58, 3.28 0.13 C4.01 -0.32, 4.23 0.18, 4.04 0.33" stroke="#000000" stroke-width="1" fill="none"></path></g><g stroke-opacity="0.7" fill-opacity="0.7" stroke-linecap="round" transform="translate(269.24640581818096 197.75903426460962) rotate(0 5.031369941516687 5.031369941516715)"><path d="M4.53 -0.03 C5.45 -0.04, 7.53 0.24, 8.58 0.91 C9.62 1.59, 10.7 2.84, 10.81 4.02 C10.92 5.2, 9.89 7.12, 9.23 7.98 C8.58 8.83, 7.87 8.77, 6.89 9.13 C5.91 9.5, 4.37 10.44, 3.33 10.16 C2.29 9.87, 1.15 8.29, 0.65 7.42 C0.14 6.56, 0.22 6.05, 0.3 4.95 C0.39 3.86, 0.21 1.58, 1.15 0.84 C2.09 0.1, 4.84 0.67, 5.94 0.52 C7.03 0.37, 7.58 0.07, 7.72 -0.07 M5.12 -0.86 C5.86 -1.07, 7.63 0.13, 8.4 1.07 C9.16 2.02, 9.41 3.71, 9.7 4.79 C9.99 5.87, 10.6 6.95, 10.14 7.58 C9.68 8.2, 8.03 8.35, 6.92 8.56 C5.8 8.76, 4.67 9.12, 3.46 8.8 C2.25 8.47, -0.01 7.6, -0.34 6.61 C-0.67 5.62, 1.04 3.75, 1.48 2.86 C1.92 1.98, 1.67 1.58, 2.3 1.31 C2.92 1.03, 4.72 1.56, 5.23 1.23 C5.73 0.89, 5.25 -0.63, 5.32 -0.71" stroke="#000000" stroke-width="1" fill="none"></path></g><g stroke-opacity="0.7" fill-opacity="0.7" stroke-linecap="round" transform="translate(288.42930747765877 204.96967476581358) rotate(0 5.031369941516687 5.031369941516715)"><path d="M7.39 1 C8.4 1.64, 9.12 3.12, 9.52 4.02 C9.92 4.92, 10 5.51, 9.78 6.4 C9.56 7.29, 9.21 8.76, 8.2 9.34 C7.19 9.93, 4.81 10.1, 3.72 9.92 C2.62 9.74, 2.29 9.04, 1.63 8.29 C0.97 7.54, -0.24 6.58, -0.22 5.42 C-0.2 4.27, 1.13 2.25, 1.77 1.35 C2.4 0.46, 2.47 -0.02, 3.6 0.06 C4.74 0.15, 7.82 1.41, 8.58 1.85 C9.34 2.29, 8.43 2.71, 8.15 2.69 M6.44 0.26 C7.11 0.7, 8.59 1.51, 9.17 2.73 C9.74 3.95, 10.2 6.39, 9.89 7.6 C9.57 8.81, 8.44 9.47, 7.29 9.99 C6.15 10.51, 4.14 11.09, 3.02 10.71 C1.91 10.33, 1.18 8.39, 0.61 7.69 C0.03 7, -0.36 7.49, -0.41 6.54 C-0.46 5.59, -0.5 3.15, 0.3 2.02 C1.1 0.88, 3.03 0.02, 4.4 -0.27 C5.77 -0.56, 8.19 0.11, 8.53 0.28 C8.87 0.44, 6.65 0.56, 6.45 0.73" stroke="#000000" stroke-width="1" fill="none"></path></g><g stroke-opacity="0.7" fill-opacity="0.7" stroke-linecap="round" transform="translate(322.45376066724225 180.3558309048318) rotate(0 5.031369941516687 5.031369941516715)"><path d="M3.85 0.07 C5 -0.32, 6.83 -0.19, 7.73 0.33 C8.63 0.85, 8.87 2.32, 9.25 3.17 C9.62 4.03, 10.18 4.43, 9.99 5.46 C9.79 6.49, 8.93 8.61, 8.07 9.34 C7.2 10.06, 5.82 9.81, 4.8 9.84 C3.78 9.86, 2.82 10.22, 1.93 9.47 C1.05 8.72, -0.3 6.46, -0.51 5.35 C-0.71 4.24, -0.27 3.8, 0.71 2.82 C1.69 1.84, 4.38 0.05, 5.38 -0.54 C6.39 -1.14, 6.81 -1.09, 6.73 -0.76 M6.55 -0.16 C7.55 0.3, 8.34 1.7, 9.08 2.65 C9.83 3.61, 11.07 4.72, 11.04 5.54 C11.01 6.36, 9.82 6.95, 8.91 7.58 C8.01 8.21, 6.94 9.19, 5.62 9.33 C4.29 9.47, 1.68 9.12, 0.97 8.41 C0.25 7.7, 1.36 6, 1.33 5.08 C1.29 4.16, 0.48 3.51, 0.76 2.91 C1.04 2.3, 2.05 2.03, 3.02 1.46 C3.98 0.89, 5.92 -0.37, 6.57 -0.51 C7.21 -0.64, 6.83 0.23, 6.89 0.66" stroke="#000000" stroke-width="1" fill="none"></path></g><g stroke-opacity="0.7" fill-opacity="0.7" stroke-linecap="round" transform="translate(315.0971221397649 203.1305151339442) rotate(0 5.031369941516687 5.031369941516715)"><path d="M3.88 0.94 C4.87 0.57, 6.38 0.03, 7.44 0.41 C8.51 0.8, 9.96 2.22, 10.26 3.25 C10.55 4.28, 9.59 5.57, 9.21 6.57 C8.83 7.58, 8.85 8.64, 7.99 9.25 C7.12 9.87, 5.04 10.49, 4.03 10.25 C3.01 10, 2.66 8.64, 1.92 7.78 C1.18 6.92, -0.35 5.94, -0.41 5.08 C-0.47 4.23, 0.82 3.32, 1.55 2.63 C2.27 1.95, 3.54 1.34, 3.96 0.96 C4.38 0.57, 3.8 0.28, 4.06 0.33 M3.7 -0.29 C4.86 -0.29, 6.7 1.04, 7.64 1.77 C8.57 2.5, 9.19 3.13, 9.32 4.08 C9.44 5.03, 8.79 6.72, 8.37 7.48 C7.95 8.25, 7.55 8.03, 6.77 8.66 C6 9.29, 4.76 11.31, 3.7 11.24 C2.64 11.18, 0.96 9.37, 0.42 8.26 C-0.12 7.15, 0.15 5.72, 0.48 4.59 C0.81 3.46, 1.92 2.22, 2.4 1.48 C2.88 0.74, 3.02 0.32, 3.36 0.15 C3.7 -0.03, 4.08 0.18, 4.45 0.44" stroke="#000000" stroke-width="1" fill="none"></path></g><g stroke-opacity="0.7" fill-opacity="0.7" stroke-linecap="round" transform="translate(246.2337369046694 197.0059906453543) rotate(0 5.031369941516687 5.031369941516715)"><path d="M5.8 -0.02 C6.72 0.02, 7.29 1.07, 7.99 1.66 C8.69 2.24, 9.78 2.47, 10 3.5 C10.23 4.53, 9.88 6.84, 9.34 7.84 C8.79 8.84, 7.69 9.07, 6.74 9.51 C5.79 9.95, 4.73 10.85, 3.63 10.47 C2.53 10.08, 0.76 8.17, 0.16 7.2 C-0.45 6.24, -0.37 5.75, 0.02 4.66 C0.41 3.57, 1.46 1.59, 2.5 0.67 C3.54 -0.26, 5.7 -0.98, 6.28 -0.91 C6.86 -0.83, 6 0.92, 5.96 1.1 M3.2 0.27 C4.39 -0.08, 6.89 -0.25, 8.06 -0.06 C9.24 0.12, 9.81 0.45, 10.24 1.37 C10.66 2.28, 11.11 4.21, 10.62 5.42 C10.14 6.63, 8.08 7.98, 7.31 8.63 C6.55 9.28, 6.99 9.24, 6.04 9.33 C5.1 9.42, 2.7 9.61, 1.64 9.19 C0.57 8.78, -0.17 8.14, -0.35 6.85 C-0.54 5.56, -0.14 2.52, 0.53 1.45 C1.19 0.39, 3.07 0.42, 3.63 0.45 C4.18 0.47, 3.66 1.79, 3.85 1.6" stroke="#000000" stroke-width="1" fill="none"></path></g><g stroke-opacity="0.7" fill-opacity="0.7" stroke-linecap="round" transform="translate(272.7964506067692 160.2167903903255) rotate(0 5.031369941516687 5.031369941516715)"><path d="M6.01 -0.11 C7.15 -0.11, 8.92 1.06, 9.5 1.93 C10.08 2.79, 9.53 4.02, 9.48 5.07 C9.42 6.13, 9.81 7.41, 9.16 8.28 C8.5 9.14, 6.56 10.17, 5.55 10.25 C4.54 10.33, 4.03 9.37, 3.08 8.76 C2.13 8.15, 0.23 7.39, -0.15 6.59 C-0.53 5.79, 0.41 4.79, 0.78 3.95 C1.15 3.11, 1.25 2.12, 2.07 1.54 C2.89 0.96, 4.69 0.52, 5.68 0.48 C6.68 0.44, 7.99 1.36, 8.06 1.3 M4.59 1.1 C5.61 1.11, 6.76 1.06, 7.41 1.6 C8.06 2.15, 8.26 3.57, 8.51 4.36 C8.75 5.15, 9.17 5.28, 8.88 6.35 C8.6 7.43, 7.77 10.24, 6.8 10.83 C5.82 11.43, 3.95 10.48, 3.06 9.94 C2.16 9.39, 1.73 8.5, 1.42 7.57 C1.11 6.64, 1.35 5.36, 1.21 4.37 C1.07 3.37, 0 2.27, 0.59 1.59 C1.18 0.91, 3.89 0.36, 4.76 0.29 C5.64 0.23, 6.09 0.95, 5.83 1.23" stroke="#000000" stroke-width="1" fill="none"></path></g><g stroke-opacity="0.7" fill-opacity="0.7" stroke-linecap="round" transform="translate(335.59506034401943 166.046490265152) rotate(0 5.031369941516687 5.031369941516715)"><path d="M4.34 0.55 C5.22 0.3, 7.01 -0.28, 7.92 0.3 C8.82 0.89, 9.53 2.95, 9.79 4.05 C10.06 5.15, 9.91 5.87, 9.52 6.9 C9.13 7.93, 8.49 9.82, 7.44 10.26 C6.38 10.69, 4.3 9.8, 3.21 9.49 C2.12 9.18, 1.29 9.28, 0.89 8.38 C0.49 7.47, 0.53 5.37, 0.78 4.07 C1.03 2.77, 1.56 1.1, 2.38 0.58 C3.2 0.07, 4.91 1.08, 5.69 0.97 C6.47 0.86, 7.2 0.05, 7.06 -0.06 M5.26 -0.39 C6.44 -0.86, 7.44 -1.18, 8.3 -0.68 C9.17 -0.18, 10.34 1.44, 10.46 2.61 C10.57 3.79, 9.27 5.36, 9 6.37 C8.72 7.38, 9.59 8, 8.79 8.68 C7.98 9.36, 5.49 10.33, 4.16 10.46 C2.82 10.58, 1.5 10.48, 0.77 9.43 C0.03 8.38, -0.37 5.39, -0.28 4.15 C-0.2 2.91, 0.49 2.46, 1.28 2 C2.07 1.53, 3.79 1.89, 4.46 1.35 C5.13 0.82, 5.1 -1.22, 5.31 -1.21" stroke="#000000" stroke-width="1" fill="none"></path></g><g stroke-opacity="0.7" fill-opacity="0.7" stroke-linecap="round" transform="translate(336.2474579062625 192.70861055335115) rotate(0 5.031369941516687 5.031369941516715)"><path d="M7.62 0.47 C8.49 0.85, 8.53 1.8, 8.98 2.75 C9.42 3.7, 10.47 5.07, 10.27 6.17 C10.06 7.28, 8.57 8.8, 7.75 9.35 C6.93 9.91, 6.45 9.62, 5.35 9.49 C4.24 9.37, 1.93 9.13, 1.12 8.6 C0.3 8.07, 0.59 7.22, 0.45 6.31 C0.32 5.4, -0.07 4.12, 0.31 3.14 C0.69 2.16, 1.35 0.7, 2.74 0.42 C4.13 0.15, 7.8 1.47, 8.65 1.5 C9.5 1.54, 8.1 0.76, 7.86 0.65 M3.98 0.76 C4.75 0.51, 5.56 1.17, 6.42 1.51 C7.27 1.85, 8.65 1.7, 9.12 2.83 C9.59 3.96, 9.67 7.16, 9.24 8.28 C8.82 9.4, 7.39 9.35, 6.57 9.55 C5.76 9.76, 5.09 9.84, 4.36 9.54 C3.63 9.24, 3.06 8.55, 2.19 7.76 C1.33 6.98, -0.74 5.81, -0.84 4.83 C-0.94 3.84, 0.5 2.47, 1.59 1.86 C2.68 1.24, 5.48 1.18, 5.72 1.14 C5.97 1.1, 3.14 1.76, 3.07 1.61" stroke="#000000" stroke-width="1" fill="none"></path></g><g stroke-opacity="0.7" fill-opacity="0.7" stroke-linecap="round" transform="translate(220.38040109849203 265.0488894068799) rotate(0 5.031369941516687 5.031369941516687)"><path d="M5 -0.58 C6.04 -0.69, 7.32 0.75, 8.13 1.5 C8.95 2.24, 9.63 2.76, 9.89 3.87 C10.14 4.99, 10.27 7.27, 9.66 8.18 C9.06 9.08, 7.31 8.99, 6.25 9.33 C5.19 9.67, 4.12 10.59, 3.33 10.21 C2.53 9.83, 1.86 8.19, 1.47 7.04 C1.08 5.89, 0.91 4.11, 1 3.3 C1.08 2.49, 1.02 2.76, 1.98 2.17 C2.95 1.58, 6.02 0.08, 6.76 -0.23 C7.49 -0.54, 6.58 0.21, 6.39 0.31 M5.84 -1.37 C6.8 -1.46, 8.45 -0.36, 9.02 0.5 C9.58 1.37, 8.98 2.76, 9.25 3.83 C9.51 4.89, 11.04 5.82, 10.61 6.89 C10.19 7.97, 8 9.59, 6.7 10.27 C5.41 10.94, 3.9 11.53, 2.84 10.92 C1.78 10.32, 0.8 7.73, 0.35 6.63 C-0.09 5.53, -0.13 5, 0.17 4.3 C0.47 3.6, 1.12 3.35, 2.13 2.41 C3.14 1.46, 5.48 -1.13, 6.22 -1.38 C6.96 -1.62, 6.82 0.42, 6.58 0.93" stroke="#000000" stroke-width="1" fill="none"></path></g><g stroke-opacity="0.7" fill-opacity="0.7" stroke-linecap="round" transform="translate(246.1286359446633 281.6013260937042) rotate(0 5.031369941516687 5.031369941516687)"><path d="M3.91 -0.06 C4.89 -0.25, 7.24 0.11, 8.2 0.77 C9.15 1.42, 9.29 2.92, 9.64 3.88 C9.99 4.84, 10.78 5.57, 10.31 6.51 C9.84 7.45, 7.85 8.81, 6.84 9.51 C5.83 10.2, 5.32 10.78, 4.25 10.68 C3.18 10.58, 1.27 9.89, 0.41 8.93 C-0.45 7.97, -1.23 6.03, -0.91 4.92 C-0.58 3.82, 1.36 3.2, 2.36 2.28 C3.35 1.36, 4.45 -0.19, 5.07 -0.58 C5.69 -0.98, 6.06 -0.27, 6.07 -0.08 M5.42 1.01 C6.36 1.06, 7.99 0.77, 8.68 1.8 C9.37 2.84, 9.76 6.03, 9.57 7.22 C9.37 8.41, 8.19 8.54, 7.5 8.95 C6.82 9.35, 6.22 9.73, 5.46 9.67 C4.71 9.61, 4 9.2, 2.96 8.57 C1.92 7.95, -0.44 6.91, -0.78 5.94 C-1.11 4.97, 0.02 3.51, 0.92 2.75 C1.82 1.99, 3.89 1.55, 4.64 1.39 C5.39 1.23, 4.92 2, 5.42 1.79 C5.91 1.58, 7.19 0.37, 7.59 0.11" stroke="#000000" stroke-width="1" fill="none"></path></g><g stroke-opacity="0.7" fill-opacity="0.7" stroke-linecap="round" transform="translate(236.31978457469313 296.0080765433478) rotate(0 5.031369941516687 5.031369941516687)"><path d="M6.26 0.53 C7.25 0.8, 8.41 1, 9.08 1.94 C9.75 2.87, 10.46 5.13, 10.29 6.17 C10.11 7.21, 8.83 7.47, 8.02 8.19 C7.2 8.91, 6.26 10.41, 5.41 10.47 C4.56 10.54, 3.61 9.43, 2.89 8.58 C2.18 7.74, 1.46 6.19, 1.1 5.4 C0.73 4.61, 0.28 4.72, 0.71 3.84 C1.14 2.96, 2.73 0.75, 3.66 0.13 C4.59 -0.48, 5.74 0.11, 6.31 0.17 C6.87 0.22, 6.98 0.23, 7.05 0.46 M4.95 -0.67 C5.7 -0.73, 5.87 -0.24, 6.89 0.32 C7.9 0.87, 10.58 1.52, 11.06 2.68 C11.54 3.85, 10.42 6, 9.75 7.33 C9.09 8.65, 8.06 10.34, 7.06 10.63 C6.07 10.93, 4.75 9.49, 3.77 9.12 C2.79 8.75, 1.77 8.9, 1.19 8.41 C0.6 7.92, 0.08 7.55, 0.27 6.21 C0.47 4.86, 1.44 1.23, 2.35 0.34 C3.26 -0.55, 5.46 0.72, 5.73 0.89 C6 1.05, 4.3 1.47, 3.98 1.34" stroke="#000000" stroke-width="1" fill="none"></path></g><g stroke-opacity="0.7" fill-opacity="0.7" stroke-linecap="round" transform="translate(210.26502312321054 294.16891691147805) rotate(0 5.031369941516687 5.031369941516687)"><path d="M5.46 -0.09 C6.55 -0.08, 7.23 0.84, 8.1 1.47 C8.97 2.09, 10.54 2.65, 10.68 3.67 C10.82 4.69, 9.54 6.42, 8.94 7.57 C8.35 8.71, 8.16 10.03, 7.11 10.55 C6.07 11.06, 3.91 11.14, 2.68 10.66 C1.45 10.19, -0.01 8.69, -0.28 7.72 C-0.55 6.74, 0.74 6.02, 1.04 4.83 C1.34 3.63, 0.73 1.38, 1.52 0.53 C2.32 -0.31, 4.95 -0.23, 5.8 -0.24 C6.64 -0.25, 6.44 0.38, 6.58 0.47 M5.51 -0.61 C6.68 -0.33, 8.05 2.33, 8.68 3.33 C9.32 4.33, 9.25 4.6, 9.33 5.4 C9.4 6.2, 9.56 7.4, 9.14 8.13 C8.71 8.85, 8.05 9.56, 6.76 9.75 C5.47 9.95, 2.44 9.8, 1.38 9.29 C0.33 8.78, 0.37 7.56, 0.42 6.7 C0.48 5.84, 1.55 4.89, 1.71 4.1 C1.88 3.32, 0.54 2.69, 1.44 1.98 C2.33 1.28, 6.07 0.23, 7.06 -0.16 C8.06 -0.54, 7.63 -0.29, 7.4 -0.34" stroke="#000000" stroke-width="1" fill="none"></path></g><g stroke-opacity="0.7" fill-opacity="0.7" stroke-linecap="round" transform="translate(178.07972956549656 283.747012330885) rotate(0 5.031369941516687 5.031369941516687)"><path d="M3.5 -0.01 C4.51 -0.31, 6.35 0.69, 7.26 1.09 C8.18 1.48, 8.53 1.44, 8.97 2.36 C9.4 3.28, 9.91 5.59, 9.89 6.62 C9.86 7.64, 9.51 8.08, 8.8 8.5 C8.1 8.92, 6.84 8.95, 5.67 9.14 C4.51 9.33, 2.63 10.29, 1.82 9.65 C1 9.01, 1.04 6.55, 0.77 5.29 C0.51 4.03, -0.32 2.99, 0.23 2.07 C0.78 1.16, 3.24 0.01, 4.09 -0.2 C4.94 -0.41, 5.3 0.62, 5.31 0.82 M2.06 0.1 C3.05 -0.41, 6.32 -0.99, 7.5 -0.58 C8.68 -0.17, 8.76 1.35, 9.12 2.54 C9.48 3.73, 9.78 5.7, 9.66 6.56 C9.54 7.42, 9.05 7.05, 8.38 7.67 C7.71 8.29, 6.63 9.79, 5.65 10.26 C4.67 10.73, 3.23 11.36, 2.5 10.5 C1.78 9.63, 1.41 6.17, 1.3 5.05 C1.2 3.94, 1.7 4.39, 1.9 3.83 C2.1 3.27, 2.45 2.31, 2.51 1.7 C2.57 1.09, 2.37 0.49, 2.28 0.16" stroke="#000000" stroke-width="1" fill="none"></path></g><g stroke-opacity="0.7" fill-opacity="0.7" stroke-linecap="round" transform="translate(196.1647992788785 307.34956093987523) rotate(0 5.031369941516687 5.031369941516687)"><path d="M4.58 0.25 C5.66 0.06, 7.95 -0.13, 8.77 0.48 C9.6 1.09, 9.34 2.62, 9.53 3.9 C9.72 5.17, 10.45 7, 9.92 8.11 C9.4 9.23, 7.62 10.28, 6.4 10.61 C5.18 10.93, 3.38 10.42, 2.61 10.06 C1.83 9.71, 2.22 9.52, 1.74 8.48 C1.26 7.43, -0.24 5.03, -0.29 3.78 C-0.34 2.53, 0.56 1.61, 1.43 0.99 C2.31 0.36, 4.16 0.23, 4.97 0.04 C5.78 -0.16, 6.19 -0.1, 6.31 -0.17 M5.76 1.4 C6.77 1.7, 7.53 1.46, 8.33 2.04 C9.12 2.63, 10.27 3.89, 10.53 4.91 C10.79 5.94, 10.85 7.32, 9.9 8.19 C8.94 9.05, 6.02 9.88, 4.79 10.1 C3.56 10.33, 3.06 9.93, 2.51 9.52 C1.96 9.1, 2.08 8.43, 1.5 7.6 C0.92 6.77, -1.32 5.75, -0.98 4.53 C-0.63 3.3, 2.19 1.07, 3.58 0.24 C4.97 -0.59, 7 -0.27, 7.36 -0.45 C7.71 -0.63, 6.13 -1.03, 5.71 -0.84" stroke="#000000" stroke-width="1" fill="none"></path></g><g stroke-opacity="0.7" fill-opacity="0.7" stroke-linecap="round" transform="translate(258.6962267624374 309.80177378236806) rotate(0 5.031369941516687 5.031369941516687)"><path d="M6.17 0.76 C7.11 0.85, 7.7 0.62, 8.34 1.41 C8.98 2.19, 9.81 4.43, 10.02 5.48 C10.24 6.54, 10.17 7.12, 9.63 7.72 C9.1 8.32, 7.96 8.64, 6.81 9.07 C5.66 9.51, 3.69 10.77, 2.73 10.33 C1.76 9.88, 1.54 7.61, 1.03 6.4 C0.53 5.19, -0.48 4.09, -0.29 3.09 C-0.09 2.1, 1.08 0.79, 2.2 0.43 C3.33 0.06, 5.74 0.83, 6.46 0.91 C7.19 1, 6.75 0.91, 6.57 0.94 M5.09 -0.58 C6.19 -0.74, 6.58 0.2, 7.27 0.99 C7.96 1.78, 8.85 3.42, 9.24 4.18 C9.62 4.95, 9.8 4.7, 9.58 5.58 C9.36 6.45, 8.72 8.47, 7.92 9.43 C7.12 10.39, 5.67 11.7, 4.77 11.32 C3.87 10.94, 3.06 8, 2.51 7.14 C1.97 6.29, 1.79 6.85, 1.48 6.21 C1.17 5.56, 0.37 4.34, 0.66 3.26 C0.95 2.17, 2.89 0.41, 3.24 -0.29 C3.59 -1, 2.65 -1.05, 2.77 -0.97" stroke="#000000" stroke-width="1" fill="none"></path></g><g stroke-opacity="0.7" fill-opacity="0.7" stroke-linecap="round" transform="translate(281.0726689501814 274.24468756622684) rotate(0 5.031369941516687 5.031369941516687)"><path d="M5.49 -0.55 C6.48 -0.71, 6.87 0.12, 7.68 1 C8.5 1.88, 10.16 3.49, 10.37 4.71 C10.58 5.92, 9.66 7.42, 8.93 8.29 C8.21 9.15, 6.78 9.53, 6.04 9.91 C5.3 10.29, 5.4 11.03, 4.47 10.57 C3.54 10.11, 1.23 8.23, 0.46 7.14 C-0.31 6.05, -0.31 5, -0.15 4.04 C0 3.08, 0.31 2.07, 1.4 1.36 C2.49 0.64, 5.46 0.06, 6.39 -0.27 C7.31 -0.59, 7.02 -0.65, 6.96 -0.6 M3.06 0.19 C4.18 -0.4, 6.39 -0.31, 7.69 0.1 C8.98 0.52, 10.58 1.61, 10.81 2.67 C11.03 3.73, 9.48 5.33, 9.03 6.46 C8.58 7.59, 8.63 8.67, 8.1 9.45 C7.56 10.23, 7.16 11.05, 5.82 11.14 C4.48 11.24, 0.89 11.03, 0.06 10.02 C-0.77 9.02, 0.5 6.53, 0.84 5.11 C1.19 3.7, 1.71 2.53, 2.13 1.52 C2.54 0.52, 3.26 -0.71, 3.34 -0.91 C3.42 -1.12, 2.57 -0.04, 2.59 0.3" stroke="#000000" stroke-width="1" fill="none"></path></g><g stroke-opacity="0.7" fill-opacity="0.7" stroke-linecap="round" transform="translate(256.2440139199448 250.94866556254794) rotate(0 5.031369941516687 5.031369941516687)"><path d="M3.91 -0.38 C4.87 -0.6, 6.65 0.7, 7.77 1.27 C8.89 1.84, 10.15 2.24, 10.62 3.05 C11.09 3.86, 11.09 4.89, 10.57 6.13 C10.05 7.37, 8.5 9.91, 7.5 10.49 C6.51 11.07, 5.78 10.04, 4.59 9.59 C3.4 9.15, 1.21 8.67, 0.39 7.82 C-0.43 6.97, -0.5 5.41, -0.33 4.48 C-0.15 3.56, 0.55 2.94, 1.42 2.28 C2.29 1.61, 4.3 0.76, 4.9 0.49 C5.5 0.21, 5.05 0.72, 5.01 0.64 M4.37 0.52 C5.1 0.64, 6.45 1.61, 7.32 1.96 C8.18 2.32, 9.13 1.78, 9.54 2.64 C9.95 3.51, 10.08 5.8, 9.77 7.15 C9.46 8.5, 8.44 10.53, 7.65 10.76 C6.87 11, 5.93 8.87, 5.08 8.57 C4.23 8.27, 3.43 9.37, 2.53 8.95 C1.63 8.52, 0 7.32, -0.3 6.03 C-0.6 4.74, 0.12 2.42, 0.72 1.21 C1.31 0.01, 2.66 -0.92, 3.27 -1.17 C3.89 -1.43, 4.13 -0.56, 4.4 -0.3" stroke="#000000" stroke-width="1" fill="none"></path></g><g stroke-opacity="0.7" fill-opacity="0.7" stroke-linecap="round" transform="translate(318.77544140350346 278.22953343527695) rotate(0 5.031369941516687 5.031369941516687)"><path d="M5.23 0 C6.22 0.28, 8.43 1.41, 9.14 2.36 C9.85 3.31, 9.66 4.71, 9.49 5.7 C9.33 6.69, 8.53 7.46, 8.13 8.29 C7.74 9.12, 8.07 10.57, 7.12 10.67 C6.16 10.78, 3.57 9.59, 2.42 8.92 C1.27 8.25, 0.61 7.55, 0.2 6.66 C-0.2 5.77, -0.48 4.62, -0.02 3.59 C0.45 2.57, 1.89 1.23, 3.01 0.5 C4.12 -0.22, 5.99 -0.68, 6.69 -0.78 C7.38 -0.88, 7.35 -0.28, 7.17 -0.09 M7.57 0.05 C8.85 0.36, 10.51 1.51, 10.76 2.56 C11 3.61, 9.49 5.21, 9.06 6.34 C8.64 7.48, 8.72 8.58, 8.2 9.38 C7.68 10.18, 7.29 11.03, 5.95 11.15 C4.6 11.28, 0.99 11.09, 0.14 10.11 C-0.7 9.12, 0.53 6.65, 0.85 5.24 C1.17 3.82, 1.66 2.64, 2.06 1.62 C2.45 0.6, 2.58 -0.69, 3.22 -0.88 C3.86 -1.07, 5.31 0.17, 5.87 0.49 C6.44 0.8, 6.46 0.98, 6.6 0.98" stroke="#000000" stroke-width="1" fill="none"></path></g><g stroke-opacity="0.7" fill-opacity="0.7" stroke-linecap="round" transform="translate(291.1880469254629 303.0581884655136) rotate(0 5.031369941516687 5.031369941516687)"><path d="M6.67 0.72 C7.88 0.97, 9.42 1.21, 10.13 1.92 C10.84 2.62, 11.19 3.63, 10.92 4.94 C10.66 6.26, 9.38 9.01, 8.53 9.81 C7.68 10.61, 7.03 9.91, 5.81 9.73 C4.6 9.55, 2.25 9.39, 1.23 8.72 C0.22 8.05, -0.16 6.62, -0.25 5.71 C-0.34 4.8, 0.15 4.09, 0.69 3.27 C1.22 2.45, 1.99 1.17, 2.96 0.8 C3.93 0.43, 5.73 1.09, 6.49 1.05 C7.24 1.01, 7.43 0.44, 7.49 0.58 M3.43 1.34 C4.36 0.81, 5.92 -0.64, 6.97 -0.33 C8.01 -0.02, 9.18 1.88, 9.71 3.22 C10.24 4.56, 10.26 6.95, 10.14 7.71 C10.01 8.48, 9.64 7.31, 8.94 7.83 C8.25 8.35, 7.27 10.55, 5.96 10.86 C4.66 11.17, 2.19 10.69, 1.1 9.7 C0.01 8.71, -0.37 6.4, -0.57 4.93 C-0.77 3.45, -0.84 1.72, -0.1 0.84 C0.64 -0.03, 3.13 -0.17, 3.87 -0.3 C4.6 -0.44, 4.36 0.13, 4.3 0.06" stroke="#000000" stroke-width="1" fill="none"></path></g><g stroke-opacity="0.7" fill-opacity="0.7" stroke-linecap="round" transform="translate(316.3232285610111 307.656087545187) rotate(0 5.031369941516687 5.031369941516687)"><path d="M4.07 0.96 C5.01 0.78, 5.76 1.02, 6.52 1.37 C7.28 1.72, 7.91 2.12, 8.64 3.06 C9.36 4, 11.03 6.08, 10.87 6.99 C10.7 7.89, 8.72 8.05, 7.66 8.5 C6.6 8.96, 5.54 9.68, 4.48 9.71 C3.42 9.74, 1.92 9.43, 1.3 8.68 C0.68 7.94, 0.74 6.48, 0.74 5.25 C0.75 4.02, 0.59 2.26, 1.34 1.3 C2.1 0.35, 4.57 -0.25, 5.25 -0.48 C5.94 -0.71, 5.37 -0.17, 5.44 -0.09 M6.28 -0.28 C7.08 -0.26, 6.8 0.49, 7.46 1.29 C8.12 2.08, 9.69 3.24, 10.22 4.48 C10.75 5.71, 11.46 7.57, 10.65 8.7 C9.83 9.83, 6.42 11.12, 5.32 11.25 C4.23 11.37, 4.67 10.16, 4.09 9.44 C3.51 8.72, 2.57 7.99, 1.83 6.92 C1.09 5.86, -0.15 3.99, -0.36 3.04 C-0.56 2.08, -0.22 1.62, 0.62 1.19 C1.45 0.76, 3.92 0.7, 4.63 0.45 C5.35 0.2, 5.05 -0.32, 4.9 -0.32" stroke="#000000" stroke-width="1" fill="none"></path></g><g stroke-opacity="0.7" fill-opacity="0.7" stroke-linecap="round" transform="translate(240.30463044374346 329.1129499169962) rotate(0 5.031369941516687 5.031369941516687)"><path d="M4.77 -0.46 C5.92 -0.95, 7.48 -1.08, 8.34 -0.32 C9.2 0.44, 9.57 3.02, 9.94 4.12 C10.3 5.22, 11.02 5.44, 10.55 6.28 C10.07 7.11, 8.18 8.53, 7.08 9.11 C5.99 9.7, 4.94 9.78, 3.97 9.77 C3.01 9.77, 2.03 9.78, 1.31 9.1 C0.6 8.41, -0.11 6.79, -0.3 5.67 C-0.5 4.55, -0.55 3.4, 0.17 2.38 C0.88 1.35, 3.24 -0.23, 4 -0.47 C4.76 -0.71, 4.69 0.78, 4.7 0.95 M5.55 -0.78 C6.65 -0.84, 8.11 0.79, 8.91 1.96 C9.71 3.13, 10.14 5.43, 10.33 6.24 C10.52 7.05, 10.52 6.07, 10.04 6.83 C9.56 7.59, 8.74 10.17, 7.45 10.8 C6.16 11.43, 3.56 11.35, 2.28 10.61 C1 9.88, 0.26 7.79, -0.25 6.38 C-0.76 4.97, -1.25 3.18, -0.79 2.16 C-0.33 1.14, 1.31 0.64, 2.49 0.26 C3.67 -0.12, 5.79 0.12, 6.28 -0.12 C6.76 -0.36, 5.49 -1.06, 5.39 -1.16" stroke="#000000" stroke-width="1" fill="none"></path></g><g stroke-opacity="0.7" fill-opacity="0.7" stroke-linecap="round" transform="translate(211.49112954445673 311.33440680892556) rotate(0 5.031369941516687 5.031369941516687)"><path d="M4.37 0.93 C5.16 0.76, 6.18 0.7, 7.27 1.34 C8.36 1.99, 10.61 3.88, 10.92 4.79 C11.23 5.71, 9.82 6.09, 9.11 6.86 C8.4 7.63, 7.64 8.89, 6.65 9.39 C5.66 9.88, 4.04 10.17, 3.17 9.83 C2.3 9.48, 1.88 8.41, 1.44 7.33 C1 6.25, 0.42 4.44, 0.54 3.35 C0.67 2.25, 1.46 1.36, 2.18 0.76 C2.89 0.16, 4.1 -0.08, 4.83 -0.27 C5.56 -0.45, 6.47 -0.52, 6.56 -0.34 M3.53 0.12 C4.38 0.02, 6.7 0.31, 7.96 1.06 C9.23 1.81, 11.06 3.4, 11.11 4.63 C11.17 5.86, 8.79 7.67, 8.3 8.43 C7.81 9.19, 8.71 9.04, 8.18 9.19 C7.65 9.35, 6.39 9.73, 5.12 9.36 C3.86 9, 1.65 7.77, 0.59 7.02 C-0.46 6.27, -1.26 5.68, -1.22 4.85 C-1.17 4.03, -0.03 2.95, 0.87 2.08 C1.77 1.21, 3.83 -0.05, 4.2 -0.38 C4.56 -0.7, 3.24 -0.23, 3.07 0.11" stroke="#000000" stroke-width="1" fill="none"></path></g><g stroke-opacity="0.7" fill-opacity="0.7" stroke-linecap="round" transform="translate(566.7662889427077 213.75348927008008) rotate(0 5.031369941516687 5.031369941516687)"><path d="M4.13 0.52 C4.98 0.29, 6 0.85, 6.87 1.28 C7.75 1.71, 8.94 1.98, 9.36 3.08 C9.78 4.17, 9.8 6.78, 9.38 7.86 C8.95 8.94, 7.68 9.24, 6.81 9.54 C5.95 9.85, 5.03 9.95, 4.2 9.67 C3.36 9.39, 2.59 8.67, 1.8 7.86 C1 7.04, -0.51 5.81, -0.55 4.8 C-0.6 3.78, 0.46 2.44, 1.52 1.77 C2.57 1.09, 5.29 0.85, 5.78 0.74 C6.28 0.63, 4.54 1.17, 4.49 1.1 M5.9 -0.83 C6.97 -0.5, 8.79 1.14, 9.54 2.27 C10.29 3.4, 10.7 5.04, 10.39 5.95 C10.08 6.86, 8.6 7.23, 7.67 7.71 C6.73 8.19, 5.59 8.47, 4.77 8.83 C3.94 9.19, 3.38 10.62, 2.72 9.87 C2.06 9.12, 0.97 5.45, 0.82 4.34 C0.66 3.23, 1.28 3.82, 1.77 3.23 C2.26 2.64, 2.98 1.06, 3.75 0.8 C4.52 0.54, 5.82 1.88, 6.39 1.69 C6.96 1.49, 7.28 -0.48, 7.17 -0.38" stroke="#000000" stroke-width="1" fill="none"></path></g><g stroke-opacity="0.7" fill-opacity="0.7" stroke-linecap="round" transform="translate(608.7016235400902 225.76093121956887) rotate(0 5.031369941516687 5.031369941516687)"><path d="M5.6 -0.91 C6.58 -0.99, 8.14 -0.07, 8.79 0.75 C9.44 1.56, 9.26 2.9, 9.5 3.97 C9.73 5.03, 10.66 6.11, 10.19 7.14 C9.72 8.16, 7.9 9.54, 6.69 10.11 C5.49 10.67, 4.01 11.06, 2.97 10.53 C1.93 9.99, 0.92 7.96, 0.44 6.91 C-0.03 5.86, -0.12 5.05, 0.14 4.22 C0.41 3.4, 1.01 2.83, 2.04 1.98 C3.08 1.13, 5.52 -0.68, 6.36 -0.88 C7.2 -1.09, 7.25 0.4, 7.09 0.77 M2.84 0.14 C3.84 0.13, 5.9 0.63, 7.01 1.08 C8.13 1.52, 9.3 1.88, 9.54 2.8 C9.79 3.73, 9 5.36, 8.47 6.63 C7.95 7.9, 6.91 9.75, 6.4 10.44 C5.88 11.13, 6.47 10.96, 5.39 10.78 C4.31 10.59, 0.65 10.22, -0.1 9.31 C-0.85 8.41, 0.62 6.69, 0.92 5.35 C1.21 4.01, 0.95 2.13, 1.69 1.29 C2.43 0.46, 5.11 0.69, 5.36 0.34 C5.62 -0.02, 3.19 -0.86, 3.22 -0.85" stroke="#000000" stroke-width="1" fill="none"></path></g><g stroke-opacity="0.7" fill-opacity="0.7" stroke-linecap="round" transform="translate(630.0237651786836 232.25027867479298) rotate(0 5.031369941516687 5.031369941516687)"><path d="M5.88 0.78 C6.83 0.91, 8.29 1.05, 8.92 2.05 C9.56 3.06, 9.9 5.65, 9.7 6.79 C9.51 7.94, 8.48 8.43, 7.75 8.93 C7.01 9.44, 6.17 9.85, 5.31 9.8 C4.44 9.76, 3.53 9.32, 2.56 8.67 C1.59 8.02, -0.21 6.91, -0.49 5.91 C-0.78 4.91, 0.06 3.47, 0.85 2.66 C1.63 1.84, 3.27 1.21, 4.21 1.03 C5.15 0.84, 5.77 1.6, 6.47 1.57 C7.18 1.53, 8.2 0.97, 8.44 0.81 M4.33 -0.4 C5.59 -0.44, 7.27 0.14, 8.11 0.56 C8.95 0.98, 9.12 1.27, 9.39 2.12 C9.65 2.97, 9.82 4.24, 9.68 5.65 C9.54 7.06, 9.34 10.1, 8.53 10.6 C7.71 11.09, 5.88 8.88, 4.8 8.62 C3.72 8.37, 2.83 9.6, 2.07 9.08 C1.31 8.55, 0.46 6.48, 0.23 5.47 C0 4.45, -0.03 4.04, 0.69 2.99 C1.41 1.95, 4.11 -0.57, 4.54 -0.81 C4.97 -1.05, 3.33 1.48, 3.27 1.55" stroke="#000000" stroke-width="1" fill="none"></path></g><g stroke-opacity="0.7" fill-opacity="0.7" stroke-linecap="round" transform="translate(622.4365225875658 256.64132568882474) rotate(0 5.031369941516687 5.031369941516687)"><path d="M4.72 -0.43 C5.56 -0.54, 6.15 -0.11, 7.14 0.45 C8.12 1.01, 10.2 1.81, 10.64 2.93 C11.07 4.05, 10.32 5.95, 9.74 7.17 C9.17 8.39, 8.17 9.86, 7.19 10.24 C6.22 10.61, 4.87 9.72, 3.87 9.4 C2.86 9.09, 1.78 8.94, 1.16 8.33 C0.55 7.73, 0.04 7.04, 0.18 5.78 C0.32 4.53, 0.96 1.67, 1.98 0.8 C3.01 -0.07, 5.63 0.51, 6.33 0.56 C7.04 0.61, 6.43 1.14, 6.2 1.09 M2.82 0.77 C3.94 0.27, 5.66 -0.41, 6.54 -0.13 C7.41 0.15, 7.68 1.27, 8.05 2.45 C8.42 3.63, 8.53 5.77, 8.76 6.97 C8.99 8.16, 10.27 8.96, 9.43 9.64 C8.6 10.32, 4.85 11.12, 3.73 11.04 C2.61 10.96, 3.25 10.08, 2.74 9.13 C2.23 8.19, 0.79 6.42, 0.66 5.37 C0.52 4.31, 1.66 3.81, 1.95 2.79 C2.25 1.78, 1.95 -0.3, 2.41 -0.72 C2.87 -1.15, 4.69 0, 4.7 0.24" stroke="#000000" stroke-width="1" fill="none"></path></g><g stroke-opacity="0.7" fill-opacity="0.7" stroke-linecap="round" transform="translate(581.6908171658636 272.3898087216704) rotate(0 5.031369941516687 5.031369941516687)"><path d="M5.75 -0.36 C6.87 -0.11, 8.18 1.95, 8.82 2.91 C9.46 3.87, 9.54 4.5, 9.57 5.39 C9.59 6.28, 9.51 7.52, 8.98 8.26 C8.44 9, 7.58 9.68, 6.36 9.85 C5.15 10.01, 2.67 9.8, 1.66 9.26 C0.66 8.72, 0.41 7.53, 0.35 6.61 C0.29 5.69, 1.03 4.58, 1.29 3.73 C1.54 2.88, 0.87 2.09, 1.9 1.49 C2.92 0.9, 6.37 0.34, 7.43 0.15 C8.48 -0.04, 8.4 0.35, 8.22 0.34 M3.49 0.23 C4.33 -0.38, 5.1 -1.24, 6.06 -1.11 C7.01 -0.97, 8.36 -0.27, 9.2 1.04 C10.05 2.35, 11.12 5.7, 11.13 6.76 C11.14 7.81, 10.06 6.65, 9.26 7.35 C8.45 8.06, 7.47 10.59, 6.3 10.97 C5.13 11.35, 3.37 10.22, 2.25 9.64 C1.13 9.06, -0.2 8.78, -0.44 7.49 C-0.69 6.2, 0.37 2.86, 0.78 1.91 C1.19 0.96, 1.65 2.2, 2 1.8 C2.36 1.41, 2.72 -0.4, 2.91 -0.46" stroke="#000000" stroke-width="1" fill="none"></path></g><g stroke-opacity="0.7" fill-opacity="0.7" stroke-linecap="round" transform="translate(502.09091534712275 268.4794275615575) rotate(0 5.031369941516687 5.031369941516687)"><path d="M2.31 0.24 C3.26 -0.27, 5.94 -0.69, 7.08 -0.34 C8.21 0.02, 8.66 1.3, 9.11 2.38 C9.57 3.46, 9.9 5.23, 9.79 6.16 C9.68 7.09, 9.17 7.28, 8.47 7.95 C7.78 8.62, 6.64 9.83, 5.62 10.18 C4.61 10.54, 3.19 10.85, 2.41 10.07 C1.63 9.29, 1.1 6.6, 0.94 5.51 C0.77 4.43, 1 4.3, 1.41 3.55 C1.82 2.8, 2.95 1.62, 3.39 1 C3.83 0.38, 4.1 0.03, 4.03 -0.16 M4.92 -0.42 C5.8 -0.55, 6.36 0.23, 7 1.19 C7.64 2.15, 8.19 4.13, 8.77 5.33 C9.35 6.53, 11.06 7.48, 10.49 8.38 C9.92 9.29, 6.4 10.5, 5.35 10.76 C4.29 11.02, 4.85 10.6, 4.16 9.96 C3.47 9.32, 1.67 7.85, 1.21 6.91 C0.75 5.97, 1.43 5.47, 1.39 4.33 C1.35 3.2, 0.14 0.84, 0.99 0.09 C1.84 -0.66, 5.97 -0.16, 6.49 -0.17 C7.02 -0.18, 4.27 0, 4.14 0.04" stroke="#000000" stroke-width="1" fill="none"></path></g><g stroke-opacity="0.7" fill-opacity="0.7" stroke-linecap="round" transform="translate(540.6961550897272 272.43053208381343) rotate(0 5.031369941516687 5.031369941516687)"><path d="M5.9 0.98 C6.91 1.23, 7.83 1.35, 8.57 2.03 C9.32 2.71, 10.22 4, 10.37 5.04 C10.53 6.09, 10.38 7.44, 9.5 8.28 C8.62 9.12, 6.25 9.89, 5.07 10.08 C3.89 10.27, 3.1 9.9, 2.43 9.43 C1.77 8.95, 1.56 8.13, 1.07 7.23 C0.58 6.33, -0.89 5.18, -0.52 4.04 C-0.14 2.89, 2.02 1.05, 3.31 0.34 C4.59 -0.36, 6.69 -0.08, 7.19 -0.2 C7.69 -0.31, 6.58 -0.51, 6.29 -0.36 M3.86 -1.26 C4.78 -1.65, 6.45 -1.46, 7.62 -0.49 C8.79 0.48, 10.42 3.56, 10.9 4.57 C11.38 5.57, 10.9 4.56, 10.49 5.53 C10.08 6.49, 9.46 9.53, 8.42 10.36 C7.38 11.2, 5.58 10.69, 4.26 10.54 C2.95 10.39, 1.19 10.55, 0.53 9.47 C-0.14 8.39, 0.3 5.11, 0.25 4.05 C0.19 2.98, -0.43 3.92, 0.22 3.1 C0.86 2.27, 3.44 -0.51, 4.11 -0.9 C4.78 -1.3, 4.26 0.75, 4.23 0.75" stroke="#000000" stroke-width="1" fill="none"></path></g><g stroke-opacity="0.7" fill-opacity="0.7" stroke-linecap="round" transform="translate(487.25812116375323 223.9068319466478) rotate(0 5.031369941516687 5.031369941516687)"><path d="M4.66 -0.34 C5.73 -0.55, 6.48 0.14, 7.26 0.83 C8.05 1.52, 8.97 2.95, 9.37 3.78 C9.77 4.62, 9.92 4.93, 9.68 5.86 C9.43 6.79, 8.73 8.52, 7.89 9.36 C7.06 10.19, 5.64 11.18, 4.68 10.89 C3.72 10.6, 2.76 8.43, 2.15 7.6 C1.53 6.78, 1.22 6.72, 0.99 5.93 C0.76 5.14, 0.26 3.89, 0.76 2.86 C1.27 1.83, 3.43 0.34, 4.01 -0.26 C4.6 -0.85, 4.2 -0.8, 4.28 -0.71 M4.46 0.02 C5.31 0.37, 6.45 1.86, 7.57 2.8 C8.7 3.74, 11.19 4.62, 11.2 5.68 C11.21 6.74, 8.34 8.4, 7.63 9.15 C6.92 9.9, 7.68 10.23, 6.94 10.19 C6.2 10.14, 4.08 9.39, 3.2 8.87 C2.31 8.36, 2.28 8.19, 1.65 7.11 C1.01 6.03, -0.96 3.48, -0.6 2.39 C-0.24 1.3, 2.9 0.97, 3.8 0.57 C4.7 0.17, 4.39 0.13, 4.82 -0.01 C5.25 -0.15, 6.46 -0.22, 6.36 -0.29" stroke="#000000" stroke-width="1" fill="none"></path></g><g stroke-opacity="0.7" fill-opacity="0.7" stroke-linecap="round" transform="translate(466.8630291616205 255.42651958630768) rotate(0 5.031369941516687 5.031369941516687)"><path d="M3.3 0.18 C4.37 -0.32, 6.34 -0.2, 7.53 0.23 C8.71 0.67, 10.11 1.73, 10.41 2.77 C10.71 3.8, 9.71 5.34, 9.31 6.44 C8.92 7.54, 8.68 8.64, 8.02 9.36 C7.37 10.09, 6.65 10.75, 5.39 10.78 C4.14 10.8, 1.32 10.46, 0.52 9.53 C-0.29 8.6, 0.36 6.52, 0.57 5.21 C0.77 3.91, 1.16 2.69, 1.73 1.71 C2.3 0.74, 3.61 -0.39, 3.98 -0.66 C4.36 -0.92, 3.96 -0.12, 3.98 0.14 M4.69 -1.22 C5.97 -0.94, 8.12 1.5, 9.12 2.13 C10.12 2.75, 10.47 1.51, 10.7 2.52 C10.93 3.53, 11.08 6.91, 10.51 8.19 C9.94 9.48, 8.51 9.73, 7.26 10.22 C6.01 10.71, 4.06 11.7, 3.03 11.15 C2 10.61, 1.75 7.83, 1.08 6.94 C0.41 6.06, -1.06 6.94, -1.01 5.85 C-0.95 4.76, 0.46 1.29, 1.4 0.42 C2.34 -0.46, 4.18 0.9, 4.66 0.61 C5.14 0.31, 4.43 -1.37, 4.28 -1.36" stroke="#000000" stroke-width="1" fill="none"></path></g><g stroke-opacity="0.7" fill-opacity="0.7" stroke-linecap="round" transform="translate(530.5869519278438 217.7724543459625) rotate(0 5.031369941516687 5.031369941516687)"><path d="M4.36 0.37 C5.18 0.38, 6.57 1.14, 7.45 1.57 C8.32 1.99, 9.25 2.01, 9.63 2.92 C10.01 3.84, 10.09 5.84, 9.74 7.08 C9.4 8.31, 8.4 10.01, 7.56 10.33 C6.73 10.66, 5.63 9.31, 4.71 9.03 C3.79 8.75, 2.86 9.24, 2.04 8.67 C1.22 8.11, -0.01 6.85, -0.2 5.64 C-0.39 4.42, 0.21 2.44, 0.91 1.36 C1.61 0.29, 3.3 -0.54, 4 -0.8 C4.7 -1.06, 4.94 -0.4, 5.12 -0.2 M3.1 1.15 C4.52 1.08, 7.94 0.99, 8.84 1.54 C9.73 2.09, 8.18 3.52, 8.48 4.45 C8.77 5.39, 10.7 6.4, 10.61 7.14 C10.53 7.88, 8.85 8.39, 7.97 8.9 C7.08 9.41, 6.58 10.5, 5.28 10.2 C3.99 9.9, 0.85 8.01, 0.2 7.09 C-0.45 6.17, 1.37 5.6, 1.39 4.69 C1.42 3.77, -0.26 2.45, 0.33 1.6 C0.92 0.75, 4.5 0.01, 4.93 -0.4 C5.35 -0.81, 2.94 -1.01, 2.87 -0.84" stroke="#000000" stroke-width="1" fill="none"></path></g><g stroke-opacity="0.7" fill-opacity="0.7" stroke-linecap="round" transform="translate(657.8352542725013 243.37487431232012) rotate(0 5.031369941516687 5.031369941516687)"><path d="M7.41 0.18 C8.59 0.51, 10.03 1.63, 10.36 2.65 C10.68 3.68, 9.72 5.21, 9.35 6.32 C8.97 7.42, 8.76 8.55, 8.12 9.29 C7.49 10.04, 6.77 10.73, 5.52 10.79 C4.27 10.84, 1.43 10.53, 0.6 9.62 C-0.22 8.71, 0.4 6.64, 0.58 5.34 C0.75 4.04, 1.2 2.79, 1.66 1.82 C2.13 0.84, 2.53 -0.33, 3.37 -0.52 C4.21 -0.71, 6 0.38, 6.69 0.68 C7.39 0.98, 7.46 1.26, 7.54 1.28 M3.99 1.62 C5.02 1.11, 6.07 -1.41, 7.09 -1.17 C8.11 -0.93, 9.59 1.85, 10.12 3.05 C10.65 4.25, 10.62 4.89, 10.27 6.03 C9.92 7.16, 8.78 9.35, 8.03 9.88 C7.27 10.4, 6.88 9.06, 5.73 9.18 C4.58 9.29, 2.07 11.19, 1.12 10.55 C0.17 9.92, 0.13 6.56, 0.01 5.39 C-0.11 4.21, -0.01 4.58, 0.4 3.52 C0.81 2.45, 2.19 -0.53, 2.44 -1 C2.7 -1.47, 1.82 0.39, 1.94 0.69" stroke="#000000" stroke-width="1" fill="none"></path></g><g stroke-opacity="0.7" fill-opacity="0.7" stroke-linecap="round" transform="translate(594.9517582444403 242.53817302856032) rotate(0 5.031369941516687 5.031369941516687)"><path d="M5.88 -0.19 C6.76 -0.19, 7.03 0.5, 7.74 1.26 C8.45 2.03, 9.73 3.21, 10.15 4.39 C10.56 5.57, 10.95 7.27, 10.22 8.33 C9.49 9.39, 6.85 10.56, 5.78 10.76 C4.72 10.96, 4.54 10.15, 3.81 9.54 C3.09 8.93, 2.11 8.14, 1.44 7.12 C0.77 6.09, -0.14 4.38, -0.21 3.39 C-0.28 2.4, 0.1 1.68, 1.02 1.17 C1.95 0.66, 4.51 0.54, 5.34 0.34 C6.18 0.13, 6.16 -0.07, 6.05 -0.04 M3.8 -0.92 C4.69 -1.43, 6.5 0.5, 7.44 1.12 C8.38 1.75, 9.12 1.87, 9.45 2.83 C9.79 3.79, 9.57 6.07, 9.45 6.9 C9.34 7.73, 9.6 7.06, 8.74 7.82 C7.88 8.57, 5.44 11.4, 4.3 11.44 C3.15 11.49, 2.57 8.89, 1.87 8.11 C1.16 7.34, 0.37 7.93, 0.07 6.8 C-0.22 5.67, -0.25 2.35, 0.08 1.31 C0.41 0.27, 1.53 0.69, 2.04 0.54 C2.54 0.39, 2.97 0.1, 3.11 0.4" stroke="#000000" stroke-width="1" fill="none"></path></g><g stroke-linecap="round"><g transform="translate(515.9538646113665 56.603178994313) rotate(0 -202.70782482822995 160.14258125840848)"><path d="M0.1 -0.03 C-67.61 53.21, -337.96 266.72, -405.52 320.31" stroke="#862e9c" stroke-width="2.5" fill="none" stroke-dasharray="8 10"></path></g></g><g stroke-opacity="0.7" fill-opacity="0.7" stroke-linecap="round" transform="translate(443.6173073652303 243.49840119155533) rotate(0 5.031369941516687 5.031369941516687)"><path d="M2.17 0.66 C3.15 -0.08, 5.3 -0.49, 6.59 -0.3 C7.87 -0.12, 9.35 0.73, 9.87 1.77 C10.4 2.8, 9.75 4.79, 9.72 5.89 C9.68 6.99, 10.24 7.84, 9.67 8.38 C9.09 8.93, 7.43 9.06, 6.24 9.17 C5.05 9.29, 3.5 9.65, 2.55 9.09 C1.59 8.52, 0.93 6.93, 0.51 5.77 C0.09 4.61, -0.53 2.9, 0.03 2.12 C0.59 1.34, 3.37 1.35, 3.86 1.09 C4.35 0.83, 3.09 0.64, 2.98 0.56 M7.12 -0.41 C8.31 -0.66, 10.06 -0.12, 10.49 0.79 C10.92 1.7, 9.83 3.6, 9.7 5.05 C9.56 6.5, 10.38 8.78, 9.67 9.48 C8.96 10.19, 6.93 9.4, 5.45 9.26 C3.96 9.13, 1.54 9.18, 0.75 8.7 C-0.04 8.22, 0.82 7.44, 0.68 6.4 C0.54 5.36, -0.42 3.41, -0.12 2.44 C0.19 1.48, 1.63 1.02, 2.51 0.63 C3.39 0.23, 4.59 -0.1, 5.17 0.07 C5.75 0.25, 6.08 1.37, 6 1.68" stroke="#000000" stroke-width="1" fill="none"></path></g><g stroke-opacity="0.7" fill-opacity="0.7" stroke-linecap="round" transform="translate(355.5005631999395 185.96915490168215) rotate(0 5.031369941516687 5.031369941516715)"><path d="M4.35 0.86 C5.32 0.74, 6.56 0.75, 7.6 1.44 C8.64 2.14, 10.31 4.03, 10.6 5.02 C10.89 6.01, 10.16 6.42, 9.34 7.38 C8.51 8.35, 6.7 10.47, 5.63 10.82 C4.55 11.16, 3.75 10.04, 2.88 9.47 C2.02 8.89, 0.8 8.45, 0.42 7.39 C0.04 6.33, 0.47 4.22, 0.6 3.11 C0.72 1.99, 0.35 1.27, 1.18 0.7 C2.01 0.13, 4.84 -0.32, 5.58 -0.32 C6.33 -0.33, 5.59 0.65, 5.65 0.68 M4.97 1.36 C5.69 1.53, 7.43 0.99, 8.17 1.53 C8.9 2.06, 9.34 3.64, 9.37 4.57 C9.39 5.49, 8.8 6.29, 8.3 7.08 C7.8 7.87, 7.29 8.87, 6.38 9.3 C5.47 9.73, 3.74 10.12, 2.84 9.67 C1.95 9.22, 1.33 7.51, 1.02 6.6 C0.7 5.69, 0.65 5.12, 0.94 4.2 C1.24 3.28, 1.91 1.53, 2.79 1.07 C3.67 0.61, 5.73 1.73, 6.21 1.44 C6.69 1.15, 5.97 -0.38, 5.67 -0.67" stroke="#000000" stroke-width="1" fill="none"></path></g><g transform="translate(416.81769132383465 10) rotate(0 18.5 12)"><text x="0" y="20" font-family="Cascadia, Segoe UI Emoji" font-size="20px" fill="#000000" text-anchor="start" style="white-space: pre;" direction="ltr">SVM</text></g><g transform="translate(495.51000986896224 21.74116437505637) rotate(0 118 12)"><text x="0" y="20" font-family="Cascadia, Segoe UI Emoji" font-size="20px" fill="#862e9c" text-anchor="start" style="white-space: pre;" direction="ltr">GHZ fidelity witness</text></g><g stroke-linecap="round"><g transform="translate(425.688638469432 91.51050909032591) rotate(0 -23.740579779439656 -3.64870669449607)"><path d="M0 0 C-7.91 -1.22, -39.57 -6.08, -47.48 -7.3" stroke="#000000" stroke-width="1.5" fill="none" stroke-dasharray="8 9"></path></g><g transform="translate(425.688638469432 91.51050909032591) rotate(0 -23.740579779439656 -3.64870669449607)"><path d="M0 0 L-14.4 4.2 L-12.47 -8.33 L0 0" stroke="none" stroke-width="0" fill="#000000" fill-rule="evenodd"></path><path d="M0 0 C-4 1.17, -8.01 2.34, -14.4 4.2 M-14.4 4.2 C-13.9 0.95, -13.4 -2.3, -12.47 -8.33 M-12.47 -8.33 C-7.67 -5.12, -2.87 -1.91, 0 0 M0 0 C0 0, 0 0, 0 0" stroke="#000000" stroke-width="1.5" fill="none"></path></g><g transform="translate(425.688638469432 91.51050909032591) rotate(0 -23.740579779439656 -3.64870669449607)"><path d="M-47.48 -7.3 L-33.08 -11.5 L-35.01 1.03 L-47.48 -7.3" stroke="none" stroke-width="0" fill="#000000" fill-rule="evenodd"></path><path d="M-47.48 -7.3 C-43.48 -8.47, -39.47 -9.63, -33.08 -11.5 M-33.08 -11.5 C-33.58 -8.25, -34.08 -5, -35.01 1.03 M-35.01 1.03 C-39.81 -2.17, -44.61 -5.38, -47.48 -7.3 M-47.48 -7.3 C-47.48 -7.3, -47.48 -7.3, -47.48 -7.3" stroke="#000000" stroke-width="1.5" fill="none"></path></g></g><g transform="translate(276.5286765768466 173.26233681711892) rotate(0 18.5 12)"><text x="0" y="20" font-family="Cascadia, Segoe UI Emoji" font-size="20px" fill="#000000" text-anchor="start" style="white-space: pre;" direction="ltr">GHZ</text></g><g transform="translate(258.4069932965059 280.5793240336335) rotate(0 7 12)"><text x="0" y="20" font-family="Cascadia, Segoe UI Emoji" font-size="20px" fill="#000000" text-anchor="start" style="white-space: pre;" direction="ltr">W</text></g><g transform="translate(111.6837526672964 166.09683269346533) rotate(0 59 24)"><text x="0" y="20" font-family="Cascadia, Segoe UI Emoji" font-size="20px" fill="#000000" text-anchor="start" style="white-space: pre;" direction="ltr">Stabilizer</text><text x="0" y="44" font-family="Cascadia, Segoe UI Emoji" font-size="20px" fill="#000000" text-anchor="start" style="white-space: pre;" direction="ltr">states</text></g><g stroke-linecap="round"><g transform="translate(242.84874772111937 70.24180512653714) rotate(0 49.28428835361427 174.4713475689739)"><path d="M-0.4 0.48 C16.27 58.72, 82.39 290.71, 98.97 348.47" stroke="#c92a2a" stroke-width="2.5" fill="none" stroke-dasharray="8 10"></path></g></g><g transform="translate(111.92138125865995 32.430517177145134) rotate(0 106.5 12)"><text x="0" y="20" font-family="Cascadia, Segoe UI Emoji" font-size="20px" fill="#c92a2a" text-anchor="start" style="white-space: pre;" direction="ltr">W fidelity witness</text></g><g transform="translate(697.757628211642 221.1036934083878) rotate(0 59.5 24)"><text x="0" y="20" font-family="Cascadia, Segoe UI Emoji" font-size="20px" fill="#000000" text-anchor="start" style="white-space: pre;" direction="ltr">PPT,</text><text x="0" y="44" font-family="Cascadia, Segoe UI Emoji" font-size="20px" fill="#000000" text-anchor="start" style="white-space: pre;" direction="ltr">Unfaithful</text></g><g transform="translate(381.71223166379525 41.40767827926038) rotate(10.354124325321116 25 18.5)"><text x="25" y="15.5" font-family="Helvetica, Segoe UI Emoji" font-size="16px" fill="#000000" text-anchor="middle" style="white-space: pre;" direction="ltr">Margin</text><text x="25" y="34" font-family="Helvetica, Segoe UI Emoji" font-size="16px" fill="#000000" text-anchor="middle" style="white-space: pre;" direction="ltr">||w||</text></g><g stroke-linecap="round"><g transform="translate(449.6087156384232 249.8260498296545) rotate(0 -85.6962423460007 23.672565631072644)"><path d="M0 0 C-28.57 7.89, -142.83 39.45, -171.39 47.35" stroke="#000000" stroke-width="2.5" fill="none" stroke-dasharray="8 10"></path></g><g transform="translate(449.6087156384232 249.8260498296545) rotate(0 -85.6962423460007 23.672565631072644)"><path d="M0 0 L-11.42 9.73 L-14.79 -2.49 L0 0" stroke="none" stroke-width="0" fill="#000000" fill-rule="evenodd"></path><path d="M0 0 C-2.87 2.45, -5.75 4.9, -11.42 9.73 M-11.42 9.73 C-12.56 5.6, -13.7 1.47, -14.79 -2.49 M-14.79 -2.49 C-11.14 -1.88, -7.49 -1.26, 0 0 M0 0 C0 0, 0 0, 0 0" stroke="#000000" stroke-width="2.5" fill="none"></path></g><g transform="translate(449.6087156384232 249.8260498296545) rotate(0 -85.6962423460007 23.672565631072644)"><path d="M-171.39 47.35 L-159.98 37.61 L-156.6 49.84 L-171.39 47.35" stroke="none" stroke-width="0" fill="#000000" fill-rule="evenodd"></path><path d="M-171.39 47.35 C-168.52 44.9, -165.65 42.45, -159.98 37.61 M-159.98 37.61 C-158.84 41.75, -157.69 45.88, -156.6 49.84 M-156.6 49.84 C-160.25 49.22, -163.91 48.61, -171.39 47.35 M-171.39 47.35 C-171.39 47.35, -171.39 47.35, -171.39 47.35" stroke="#000000" stroke-width="2.5" fill="none"></path></g></g><g transform="translate(350.77746156130934 275.05505320629084) rotate(345.23757137956034 38.5 10)"><text x="38.5" y="16" font-family="Cascadia, Segoe UI Emoji" font-size="16px" fill="#000000" text-anchor="middle" style="white-space: pre;" direction="ltr">Fidelity</text></g><g stroke-opacity="0.7" fill-opacity="0.7" stroke-linecap="round" transform="translate(347.1757505317164 234.3192270992804) rotate(0 5.031369941516687 5.031369941516687)"><path d="M3.68 -0.44 C4.64 -0.86, 7.12 -0.53, 7.96 -0.02 C8.81 0.48, 8.41 1.36, 8.73 2.57 C9.05 3.78, 10 6.04, 9.89 7.22 C9.78 8.41, 8.87 9.08, 8.09 9.69 C7.31 10.31, 6.17 11.17, 5.21 10.91 C4.25 10.65, 3.29 9.01, 2.33 8.16 C1.38 7.3, -0.36 6.9, -0.53 5.78 C-0.71 4.66, 0.47 2.43, 1.29 1.44 C2.11 0.44, 3.73 -0.07, 4.38 -0.19 C5.03 -0.3, 4.98 0.5, 5.21 0.75 M4.85 1.08 C5.69 1.15, 7.83 1.24, 8.78 1.97 C9.73 2.7, 10.71 4.34, 10.55 5.45 C10.4 6.57, 8.8 8.14, 7.85 8.67 C6.9 9.19, 5.52 8.47, 4.85 8.6 C4.17 8.72, 4.74 9.93, 3.8 9.41 C2.86 8.89, 0.02 6.56, -0.79 5.46 C-1.61 4.36, -1.8 3.51, -1.08 2.82 C-0.36 2.12, 2.14 1.7, 3.53 1.28 C4.92 0.86, 6.95 0.46, 7.24 0.31 C7.53 0.17, 5.47 0.17, 5.28 0.4" stroke="none" stroke-width="0" fill="#be4bdb"></path><path d="M4.68 -0.29 C5.48 -0.88, 5.53 -0.66, 6.3 -0.26 C7.06 0.15, 8.58 0.95, 9.27 2.16 C9.97 3.37, 10.8 5.96, 10.47 6.99 C10.13 8.03, 8.33 7.9, 7.24 8.37 C6.16 8.84, 4.84 9.63, 3.95 9.8 C3.06 9.97, 2.71 10.27, 1.91 9.39 C1.11 8.52, -0.55 5.74, -0.84 4.56 C-1.12 3.38, -0.8 2.92, 0.19 2.31 C1.18 1.7, 4.2 1.25, 5.12 0.91 C6.04 0.57, 5.76 0.5, 5.72 0.27 M3.86 -0.85 C4.96 -0.99, 7.75 0.49, 8.93 1.2 C10.12 1.91, 10.89 2.23, 10.97 3.42 C11.05 4.61, 9.97 7.46, 9.39 8.34 C8.81 9.23, 8.37 8.46, 7.5 8.74 C6.63 9.03, 5.4 10.26, 4.17 10.03 C2.93 9.8, 0.64 8.32, 0.1 7.38 C-0.43 6.44, 0.54 5.41, 0.95 4.39 C1.36 3.37, 2.1 1.87, 2.55 1.23 C3 0.6, 3.42 0.7, 3.66 0.57 C3.89 0.45, 3.77 0.63, 3.97 0.47" stroke="#000000" stroke-width="1" fill="none"></path></g><g stroke-linecap="round"><g transform="translate(300.66724616356396 195.62179592490486) rotate(0 22.56879461358335 21.88281967003894)"><path d="M0 0 C1.96 5.98, 4.21 28.59, 11.73 35.89 C19.26 43.18, 39.57 42.45, 45.14 43.77 M0 0 C1.96 5.98, 4.21 28.59, 11.73 35.89 C19.26 43.18, 39.57 42.45, 45.14 43.77" stroke="#000000" stroke-width="2" fill="none"></path></g><g transform="translate(300.66724616356396 195.62179592490486) rotate(0 22.56879461358335 21.88281967003894)"><path d="M9.47 14.31 C7.51 11.36, 5.56 8.4, 0 0 M9.47 14.31 C6.71 10.13, 3.94 5.95, 0 0" stroke="#000000" stroke-width="2" fill="none"></path></g><g transform="translate(300.66724616356396 195.62179592490486) rotate(0 22.56879461358335 21.88281967003894)"><path d="M-1.94 17.05 C-1.54 13.53, -1.14 10.01, 0 0 M-1.94 17.05 C-1.38 12.07, -0.81 7.09, 0 0" stroke="#000000" stroke-width="2" fill="none"></path></g><g transform="translate(300.66724616356396 195.62179592490486) rotate(0 22.56879461358335 21.88281967003894)"><path d="M28.47 47.85 C31.91 47, 35.35 46.16, 45.14 43.77 M28.47 47.85 C33.34 46.66, 38.2 45.46, 45.14 43.77" stroke="#000000" stroke-width="2" fill="none"></path></g><g transform="translate(300.66724616356396 195.62179592490486) rotate(0 22.56879461358335 21.88281967003894)"><path d="M29.75 36.18 C32.92 37.74, 36.1 39.31, 45.14 43.77 M29.75 36.18 C34.24 38.39, 38.73 40.61, 45.14 43.77" stroke="#000000" stroke-width="2" fill="none"></path></g></g></svg>